<?xml version="1.0" standalone="no"?><!DOCTYPE svg PUBLIC "-//W3C//DTD SVG 1.1//EN" "http://www.w3.org/Graphics/SVG/1.1/DTD/svg11.dtd"><svg height="126" node-id="1" sillyvg="true" template-height="126" template-width="104" version="1.1" viewBox="0 0 104 126" width="104" xmlns="http://www.w3.org/2000/svg" xmlns:xlink="http://www.w3.org/1999/xlink"><defs node-id="28"></defs><g node-id="30"><g node-id="31"><path d="M 84.67 123.89 L 84.67 112.46 L 84.45 108.69 L 83.84 105.10 L 82.86 101.70 L 81.52 98.43 L 79.82 95.32 L 77.84 92.46 L 75.57 89.84 L 73.01 87.45 L 31.16 87.45 L 28.60 89.84 L 26.34 92.46 L 24.36 95.32 L 22.66 98.43 L 21.31 101.70 L 20.33 105.10 L 19.73 108.69 L 19.50 112.46 L 19.50 123.89" fill="#f4a14e" fill-rule="nonzero" group-id="1,2" id="Shape" node-id="5" stroke="none" target-height="36.436592" target-width="65.17072" target-x="19.502207" target-y="87.4499"></path><path d="M 41.98 87.45 L 31.16 87.45 L 28.60 89.84 L 26.34 92.46 L 24.36 95.32 L 22.66 98.43 L 21.31 101.70 L 20.33 105.10 L 19.73 108.68 L 19.50 112.46 L 19.50 123.89 L 30.32 123.89 L 30.32 112.46 L 30.55 108.68 L 31.16 105.10 L 32.13 101.69 L 33.48 98.43 L 35.18 95.32 L 37.16 92.46 L 39.42 89.84 L 41.98 87.45 Z" fill="#e28d40" fill-rule="nonzero" group-id="1,2" id="Shape" node-id="6" stroke="none" target-height="36.4366" target-width="22.481905" target-x="19.502207" target-y="87.449646"></path><path d="M 67.37 90.73 L 74.24 98.04 L 66.52 98.29 L 68.26 110.25 L 57.81 104.02 L 52.09 114.24 L 46.36 104.02 L 35.91 110.25 L 37.65 98.29 L 29.94 98.04 L 36.80 90.73" fill="#fcf8f2" fill-rule="nonzero" group-id="1,2" id="Shape" node-id="7" stroke="none" target-height="23.50428" target-width="44.298115" target-x="29.937283" target-y="90.73253"></path><path d="M 27.47 26.37 L 23.13 24.55 L 20.30 23.03 L 17.02 20.88 L 13.86 18.28 L 10.76 15.00 L 8.93 12.54 L 7.32 9.74 L 5.93 6.55 L 5.72 5.17 L 6.05 3.89 L 6.82 2.81 L 8.01 2.08 L 9.39 1.88 L 10.68 2.20 L 11.75 2.98 L 12.48 4.17 L 13.92 7.30 L 15.70 9.98 L 16.63 7.41 L 17.35 6.22 L 18.43 5.44 L 19.71 5.12 L 21.09 5.32 L 22.28 6.05 L 23.06 7.12 L 23.38 8.41 L 23.18 9.79 L 21.19 15.26 L 23.56 16.83 L 25.65 17.99 L 29.06 19.53 L 30.46 20.02 L 31.64 20.61 L 72.53 20.60 L 73.71 20.02 L 75.11 19.53 L 78.53 17.99 L 80.62 16.83 L 82.98 15.26 L 81.00 9.79 L 80.79 8.41 L 81.12 7.12 L 81.89 6.05 L 83.08 5.32 L 84.46 5.12 L 85.75 5.44 L 86.82 6.22 L 87.54 7.41 L 88.48 9.98 L 90.25 7.30 L 91.70 4.17 L 92.42 2.98 L 93.50 2.20 L 94.78 1.88 L 96.16 2.08 L 97.35 2.81 L 98.13 3.89 L 98.45 5.17 L 98.24 6.55 L 96.85 9.74 L 95.24 12.54 L 93.42 15.00 L 90.31 18.28 L 87.15 20.88 L 83.87 23.03 L 81.05 24.55 L 76.71 26.37" fill="#c69a6a" fill-rule="nonzero" group-id="1,2" id="Shape" node-id="8" stroke="none" target-height="24.497229" target-width="92.72398" target-x="5.724473" target-y="1.8763169"></path><path d="M 81.69 43.28 L 83.56 45.36 L 86.07 47.57 L 88.83 49.44 L 91.86 50.96 L 95.06 52.08 L 98.44 52.77 L 102.03 53.02 L 101.79 49.50 L 101.13 46.18 L 100.06 43.03 L 98.59 40.04 L 96.80 37.31 L 94.67 34.82 L 92.25 32.61 L 89.59 30.73 L 86.66 29.17 L 83.56 28.00 L 80.28 27.23 L 76.80 26.88 L 27.20 26.88 L 23.72 27.23 L 20.44 28.00 L 17.34 29.17 L 14.41 30.73 L 11.75 32.61 L 9.33 34.82 L 7.20 37.31 L 5.41 40.04 L 3.94 43.03 L 2.87 46.18 L 2.21 49.50 L 1.97 53.02 L 5.56 52.77 L 8.94 52.08 L 12.14 50.96 L 15.17 49.44 L 17.93 47.57 L 20.45 45.36 L 22.31 43.28" fill="#f4a14e" fill-rule="nonzero" group-id="1,2" id="Shape" node-id="9" stroke="none" target-height="26.142668" target-width="100.05855" target-x="1.9710944" target-y="26.876806"></path><path d="M 102.03 53.02 L 98.44 52.77 L 95.06 52.08 L 91.86 50.96 L 88.83 49.44 L 86.07 47.57 L 83.56 45.36 L 81.69 43.28 L 22.31 43.28 L 20.45 45.36 L 17.93 47.57 L 15.17 49.44 L 12.14 50.96 L 8.94 52.08 L 5.56 52.77 L 1.97 53.02 L 3.14 51.27 L 6.29 47.13 L 8.41 44.73 L 10.89 42.28 L 13.59 40.10 L 16.41 38.41 L 18.40 37.60 L 20.35 37.19 L 22.31 37.17 L 81.69 37.17 L 83.65 37.19 L 85.60 37.60 L 87.59 38.41 L 90.41 40.10 L 93.11 42.28 L 95.59 44.73 L 97.71 47.13 L 100.86 51.27 L 102.03 53.02 Z" fill="#ffdac5" fill-rule="nonzero" group-id="1,2" id="Shape" node-id="10" stroke="none" target-height="15.848" target-width="100.058304" target-x="1.9713396" target-y="37.171474"></path><path d="M 21.93 67.90 L 20.58 67.62 L 19.37 66.91 L 18.28 65.66 L 17.48 64.17 L 16.97 62.39 L 16.76 60.27 L 16.97 58.15 L 17.48 56.37 L 18.28 54.88 L 19.37 53.63 L 20.58 52.91 L 21.93 52.64 L 82.24 52.64 L 83.60 52.91 L 84.80 53.63 L 85.90 54.88 L 86.69 56.37 L 87.21 58.15 L 87.41 60.27 L 87.21 62.39 L 86.69 64.17 L 85.90 65.66 L 84.80 66.91 L 83.60 67.62 L 82.24 67.90" fill="#efc1ab" fill-rule="nonzero" group-id="1,2" id="Shape" node-id="11" stroke="none" target-height="15.257542" target-width="70.65083" target-x="16.76166" target-y="52.640736"></path><path d="M 81.86 49.32 L 82.15 51.69 L 82.24 54.13 L 82.24 68.08 L 81.93 72.24 L 81.12 75.93 L 79.85 79.21 L 78.12 82.13 L 75.96 84.80 L 73.45 87.11 L 70.58 89.10 L 67.31 90.76 L 63.88 92.02 L 60.23 92.94 L 56.30 93.50 L 52.09 93.70 L 47.87 93.50 L 43.95 92.94 L 40.29 92.02 L 36.87 90.76 L 33.59 89.10 L 30.72 87.11 L 28.22 84.80 L 26.05 82.13 L 24.33 79.21 L 23.06 75.93 L 22.25 72.24 L 21.93 68.08 L 21.93 54.13 L 22.03 51.69 L 22.31 49.32" fill="#ffdac5" fill-rule="nonzero" group-id="1,2" id="Shape" node-id="12" stroke="none" target-height="44.377544" target-width="60.311172" target-x="21.930756" target-y="49.322247"></path><path d="M 31.63 68.08 L 31.63 54.13 L 31.73 51.69 L 32.01 49.32 L 22.31 49.32 L 22.03 51.69 L 21.93 54.13 L 21.93 68.08 L 22.25 72.24 L 23.06 75.93 L 24.33 79.21 L 26.05 82.13 L 28.22 84.80 L 30.72 87.11 L 33.59 89.10 L 36.87 90.76 L 40.29 92.02 L 43.95 92.94 L 47.87 93.50 L 52.09 93.70 L 56.94 93.44 L 52.19 92.62 L 47.90 91.30 L 44.00 89.49 L 41.28 87.77 L 38.89 85.78 L 36.80 83.52 L 35.01 80.98 L 33.59 78.24 L 32.55 75.21 L 31.89 71.84 L 31.63 68.08 Z" fill="#efc1ab" fill-rule="nonzero" group-id="1,2" id="Shape" node-id="13" stroke="none" target-height="44.375088" target-width="35.007286" target-x="21.93051" target-y="49.324703"></path><path d="M 82.24 54.13 L 82.24 63.29 L 79.14 62.92 L 76.16 61.93 L 73.35 60.46 L 70.77 58.68 L 68.40 56.71 L 66.44 54.81 L 63.57 51.57 L 62.53 50.21 L 62.50 58.06 L 56.84 59.14 L 52.02 59.65 L 47.93 59.68 L 43.82 59.33 L 40.45 58.74 L 37.72 57.98 L 33.96 56.48 L 31.63 55.20 L 29.98 54.04 L 29.44 53.57 L 28.35 56.40 L 26.83 58.75 L 25.04 60.75 L 23.55 62.10 L 21.93 63.29 L 21.93 54.13 L 22.03 51.69 L 22.31 49.32 L 22.85 43.28 L 25.75 40.77 L 28.82 38.35 L 31.86 36.25 L 35.86 34.01 L 40.24 32.22 L 43.29 31.38 L 46.61 30.85 L 50.22 30.65 L 56.40 30.66 L 58.49 30.80 L 59.95 31.09 L 61.30 31.63 L 62.81 32.55 L 66.89 35.63 L 68.68 36.36 L 72.01 37.49 L 75.32 38.62 L 77.09 39.37 L 81.86 49.32 L 82.15 51.69 L 82.24 54.13 Z" fill="#5c5e70" fill-rule="nonzero" group-id="1,2" id="Shape" node-id="14" stroke="none" target-height="32.63793" target-width="60.311417" target-x="21.93051" target-y="30.648947"></path><path d="M 24.89 32.97 L 26.21 28.99 L 28.04 25.37 L 30.38 22.04 L 33.17 19.09 L 36.33 16.59 L 39.88 14.53 L 43.69 13.01 L 47.74 12.08 L 52.09 11.74 L 55.94 12.01 L 59.56 12.74 L 63.00 13.94 L 66.25 15.58 L 69.21 17.58 L 71.91 19.96 L 74.37 22.78 L 76.45 25.91 L 78.09 29.31 L 79.28 32.97 L 79.28 32.97" fill="#f4a14e" fill-rule="nonzero" group-id="1,2" id="Shape" node-id="15" stroke="none" target-height="21.229649" target-width="54.38955" target-x="24.891565" target-y="11.738631"></path><path d="M 58.81 12.55 L 55.53 11.95 L 52.09 11.74 L 47.74 12.08 L 43.69 13.01 L 39.88 14.53 L 36.33 16.59 L 33.17 19.09 L 30.38 22.04 L 28.04 25.37 L 26.21 28.99 L 24.89 32.97 L 38.33 32.97 L 39.37 29.68 L 40.77 26.62 L 42.52 23.76 L 44.60 21.13 L 46.95 18.78 L 49.59 16.71 L 52.46 14.97 L 55.52 13.59 L 58.81 12.55 Z" fill="#e28d40" fill-rule="nonzero" group-id="1,2" id="Shape" node-id="16" stroke="none" target-height="21.229649" target-width="33.920433" target-x="24.891321" target-y="11.738631"></path><path d="M 32.01 32.97 L 31.86 36.25 L 31.76 41.27 L 31.69 46.85 L 31.65 51.60 L 31.63 54.13 L 31.63 55.20 L 29.98 54.04 L 29.44 53.57 L 28.35 56.40 L 26.83 58.75 L 25.04 60.75 L 23.55 62.10 L 21.93 63.29 L 21.93 54.13 L 22.03 51.69 L 22.31 49.32 L 28.82 38.35 L 32.01 32.97 Z" fill="#494b5b" fill-rule="nonzero" group-id="1,2" id="Shape" node-id="17" stroke="none" target-height="30.318596" target-width="10.084322" target-x="21.93051" target-y="32.96828"></path><path d="M 81.86 37.17 L 81.86 53.06 L 79.88 51.42 L 76.16 48.90 L 72.01 46.74 L 67.39 44.95 L 62.60 43.67 L 57.51 42.87 L 52.09 42.58 L 47.29 42.80 L 42.75 43.43 L 38.43 44.45 L 33.83 46.03 L 29.63 47.99 L 25.73 50.37 L 22.31 53.06 L 22.31 37.17 L 22.43 36.14 L 22.78 35.18 L 23.33 34.32 L 24.08 33.59 L 27.20 31.40 L 30.61 29.47 L 34.35 27.82 L 38.43 26.45 L 42.75 25.43 L 47.29 24.80 L 52.09 24.57 L 57.51 24.86 L 62.60 25.66 L 67.39 26.94 L 72.01 28.73 L 76.16 30.89 L 79.88 33.42 L 80.12 33.61 L 80.86 34.33 L 81.40 35.19 L 81.74 36.14 L 81.86 37.17 Z" fill="#c69a6a" fill-rule="nonzero" group-id="1,2" id="Shape" node-id="18" stroke="none" target-height="28.490002" target-width="59.550056" target-x="22.31119" target-y="24.571964"></path><path d="M 38.43 26.45 L 38.43 44.45 L 33.83 46.03 L 29.63 47.99 L 25.73 50.37 L 22.31 53.06 L 22.31 37.17 L 22.43 36.14 L 22.78 35.18 L 23.33 34.32 L 24.08 33.59 L 27.20 31.40 L 30.61 29.47 L 34.35 27.82 L 38.43 26.45 Z" fill="#b58657" fill-rule="nonzero" group-id="1,2" id="Shape" node-id="19" stroke="none" target-height="26.61621" target-width="16.122942" target-x="22.31119" target-y="26.445755"></path><path d="M 75.54 73.66 L 75.23 74.60 L 74.33 75.42 L 73.08 75.94 L 71.43 76.15 L 69.79 75.94 L 68.53 75.42 L 67.63 74.60 L 67.33 73.66 L 67.63 72.72 L 68.53 71.89 L 69.79 71.37 L 71.43 71.16 L 73.08 71.37 L 74.33 71.89 L 75.23 72.72 L 75.54 73.66 Z" fill="#fcb997" fill-rule="nonzero" group-id="1,2" id="Oval" node-id="20" stroke="none" target-height="4.983017" target-width="8.210609" target-x="67.32675" target-y="71.16396"></path><path d="M 36.85 73.66 L 36.54 74.60 L 35.64 75.42 L 34.39 75.94 L 32.74 76.15 L 31.10 75.94 L 29.84 75.42 L 28.94 74.60 L 28.64 73.66 L 28.94 72.72 L 29.84 71.89 L 31.10 71.37 L 32.74 71.16 L 34.39 71.37 L 35.64 71.89 L 36.54 72.72 L 36.85 73.66 Z" fill="#fcb997" fill-rule="nonzero" group-id="1,2" id="Oval" node-id="21" stroke="none" target-height="4.983017" target-width="8.210604" target-x="28.636793" target-y="71.16396"></path><path d="M 19.50 111.84 L 18.77 111.99 L 18.18 112.39 L 17.79 112.97 L 17.64 113.71 L 17.64 123.89 L 17.79 124.62 L 18.18 125.21 L 18.77 125.61 L 19.50 125.75 L 20.23 125.61 L 20.82 125.21 L 21.22 124.62 L 21.37 123.89 L 21.37 113.71 L 21.22 112.97 L 20.82 112.39 L 20.23 111.99 L 19.50 111.84 Z" fill="#000000" fill-rule="nonzero" group-id="1,2" id="Shape" node-id="22" stroke="none" target-height="13.916489" target-width="3.7322254" target-x="17.636095" target-y="111.83839"></path><path d="M 38.10 62.39 L 37.37 62.54 L 36.78 62.93 L 36.38 63.52 L 36.23 64.26 L 36.23 68.14 L 36.38 68.87 L 36.78 69.46 L 37.37 69.86 L 38.10 70.01 L 38.83 69.86 L 39.42 69.46 L 39.82 68.87 L 39.96 68.14 L 39.96 64.26 L 39.81 63.52 L 39.42 62.93 L 38.83 62.54 L 38.10 62.39 Z" fill="#000000" fill-rule="nonzero" group-id="1,2" id="Shape" node-id="23" stroke="none" target-height="7.6218987" target-width="3.7322273" target-x="36.231735" target-y="62.387684"></path><path d="M 66.94 62.39 L 66.21 62.54 L 65.62 62.93 L 65.22 63.52 L 65.07 64.26 L 65.07 68.14 L 65.22 68.87 L 65.62 69.46 L 66.21 69.86 L 66.94 70.01 L 67.67 69.86 L 68.26 69.46 L 68.65 68.87 L 68.80 68.14 L 68.80 64.26 L 68.65 63.52 L 68.26 62.93 L 67.67 62.54 L 66.94 62.39 Z" fill="#000000" fill-rule="nonzero" group-id="1,2" id="Shape" node-id="24" stroke="none" target-height="7.6218987" target-width="3.7322235" target-x="65.071625" target-y="62.387684"></path><path d="M 56.76 77.96 L 55.44 78.94 L 54.05 79.52 L 52.52 79.71 L 50.99 79.52 L 49.59 78.94 L 48.28 77.96 L 47.66 77.54 L 46.96 77.41 L 46.26 77.54 L 45.64 77.96 L 45.23 78.58 L 45.10 79.28 L 45.23 79.97 L 45.64 80.60 L 47.18 81.85 L 48.86 82.73 L 50.66 83.27 L 52.52 83.45 L 54.37 83.27 L 56.18 82.73 L 57.86 81.85 L 59.39 80.60 L 59.81 79.97 L 59.94 79.28 L 59.81 78.58 L 59.39 77.96 L 58.77 77.54 L 58.07 77.41 L 57.38 77.54 L 56.76 77.96 Z" fill="#000000" fill-rule="nonzero" group-id="1,2" id="Shape" node-id="25" stroke="none" target-height="6.03701" target-width="14.845383" target-x="45.095467" target-y="77.40815"></path><path d="M 96.01 33.52 L 93.07 30.88 L 89.85 28.71 L 86.37 27.01 L 82.67 25.82 L 85.60 24.16 L 88.91 21.88 L 92.08 19.17 L 95.17 15.78 L 96.99 13.27 L 98.60 10.41 L 100.00 7.19 L 100.30 5.76 L 100.23 4.41 L 99.81 3.10 L 99.08 1.93 L 98.09 1.02 L 96.80 0.33 L 95.41 0.02 L 94.06 0.08 L 92.71 0.51 L 91.51 1.27 L 90.60 2.27 L 89.94 3.53 L 88.89 5.90 L 87.89 4.65 L 86.54 3.75 L 85.18 3.32 L 83.83 3.26 L 82.45 3.56 L 81.15 4.25 L 80.16 5.17 L 79.43 6.33 L 79.01 7.64 L 78.94 8.99 L 79.24 10.43 L 80.73 14.54 L 77.75 16.29 L 75.50 17.35 L 73.20 18.22 L 72.90 18.32 L 69.93 15.78 L 66.75 13.70 L 63.33 12.05 L 59.73 10.85 L 55.99 10.12 L 52.09 9.87 L 48.10 10.14 L 44.32 10.89 L 40.71 12.11 L 37.28 13.79 L 34.14 15.85 L 31.26 18.31 L 30.98 18.22 L 28.67 17.35 L 26.42 16.29 L 23.44 14.54 L 24.93 10.42 L 25.23 8.99 L 25.17 7.64 L 24.75 6.33 L 24.01 5.17 L 23.02 4.25 L 21.73 3.56 L 20.34 3.26 L 18.99 3.32 L 17.64 3.75 L 16.28 4.65 L 15.28 5.90 L 14.23 3.53 L 13.57 2.27 L 12.66 1.27 L 11.47 0.51 L 10.11 0.08 L 8.76 0.02 L 7.37 0.33 L 6.08 1.02 L 5.09 1.93 L 4.36 3.10 L 3.94 4.41 L 3.87 5.76 L 4.18 7.19 L 5.57 10.40 L 7.17 13.25 L 8.98 15.76 L 12.06 19.14 L 15.22 21.85 L 18.52 24.13 L 21.44 25.79 L 17.72 26.98 L 14.20 28.68 L 10.95 30.86 L 7.99 33.52 L 5.63 36.30 L 3.68 39.29 L 2.14 42.50 L 1.02 45.87 L 0.34 49.37 L 0.10 53.02 L 0.25 53.75 L 0.65 54.34 L 1.24 54.74 L 1.97 54.89 L 5.40 54.68 L 8.69 54.08 L 11.87 53.09 L 14.91 51.73 L 17.76 50.01 L 20.45 47.92 L 20.45 49.20 L 20.22 51.05 L 18.77 51.76 L 17.50 52.83 L 16.40 54.34 L 15.60 56.05 L 15.09 58.01 L 14.90 60.27 L 15.09 62.50 L 15.58 64.44 L 16.36 66.14 L 17.44 67.64 L 18.68 68.72 L 20.10 69.45 L 20.47 73.06 L 21.25 76.39 L 22.41 79.49 L 23.98 82.40 L 25.94 85.06 L 28.30 87.50 L 25.77 90.20 L 23.57 93.11 L 21.68 96.24 L 20.13 99.56 L 18.95 103.01 L 18.13 106.62 L 18.15 107.37 L 18.44 108.02 L 18.96 108.51 L 19.65 108.78 L 19.97 108.81 L 20.61 108.69 L 21.16 108.37 L 21.58 107.88 L 21.81 107.25 L 22.56 103.95 L 23.66 100.79 L 25.10 97.76 L 26.86 94.91 L 28.92 92.27 L 31.28 89.83 L 33.71 91.30 L 28.58 96.76 L 28.10 97.70 L 28.21 98.76 L 28.87 99.58 L 29.88 99.91 L 35.50 100.09 L 34.06 109.98 L 34.20 111.01 L 34.87 111.80 L 35.86 112.12 L 36.86 111.86 L 45.67 106.61 L 50.46 115.15 L 51.14 115.85 L 52.09 116.10 L 53.03 115.85 L 53.71 115.15 L 58.50 106.61 L 67.31 111.86 L 68.31 112.12 L 69.30 111.80 L 69.97 111.01 L 70.11 109.98 L 68.67 100.09 L 74.30 99.91 L 75.30 99.58 L 75.96 98.76 L 76.07 97.70 L 75.59 96.76 L 70.46 91.30 L 72.89 89.83 L 75.84 92.95 L 78.27 96.36 L 80.22 100.09 L 81.64 104.05 L 82.50 108.16 L 82.81 112.46 L 82.81 123.89 L 82.96 124.62 L 83.35 125.21 L 83.94 125.61 L 84.67 125.75 L 85.40 125.61 L 85.99 125.21 L 86.39 124.62 L 86.54 123.89 L 86.54 112.46 L 86.21 107.74 L 85.29 103.22 L 83.76 98.86 L 81.66 94.75 L 79.04 90.98 L 75.87 87.51 L 78.23 85.06 L 80.19 82.40 L 81.76 79.49 L 82.93 76.39 L 83.70 73.06 L 84.08 69.45 L 85.49 68.72 L 86.73 67.64 L 87.81 66.14 L 88.59 64.44 L 89.09 62.50 L 89.28 60.27 L 89.08 58.01 L 88.57 56.05 L 87.78 54.34 L 86.67 52.83 L 85.40 51.76 L 83.96 51.05 L 83.73 49.19 L 83.73 48.07 L 86.39 50.12 L 89.22 51.80 L 92.24 53.13 L 95.39 54.10 L 98.64 54.68 L 102.03 54.89 L 102.76 54.74 L 103.35 54.34 L 103.75 53.75 L 103.90 53.02 L 103.66 49.37 L 102.98 45.87 L 101.86 42.50 L 100.32 39.29 L 98.38 36.30 L 96.01 33.52 Z M 99.10 45.88 L 97.07 43.58 L 94.68 41.21 L 92.09 39.05 L 89.34 37.24 L 87.38 36.28 L 85.43 35.64 L 83.45 35.29 L 82.62 33.56 L 81.27 32.13 L 81.02 31.94 L 80.92 31.86 L 80.00 29.08 L 83.71 30.02 L 87.20 31.52 L 90.42 33.55 L 93.33 36.12 L 95.80 39.11 L 97.71 42.35 L 99.10 45.88 Z M 23.80 54.25 L 27.58 51.38 L 31.81 48.97 L 36.54 47.01 L 41.47 45.61 L 46.64 44.75 L 52.09 44.45 L 57.13 44.70 L 61.94 45.43 L 66.54 46.63 L 70.97 48.31 L 75.03 50.40 L 78.75 52.91 L 80.38 54.24 L 80.38 61.26 L 78.25 60.72 L 76.19 59.90 L 74.19 58.79 L 71.40 56.81 L 69.00 54.71 L 65.42 50.87 L 64.06 49.13 L 63.64 48.70 L 63.13 48.44 L 62.56 48.34 L 61.97 48.42 L 61.44 48.69 L 61.03 49.10 L 60.76 49.61 L 60.67 50.20 L 60.64 56.56 L 55.34 57.45 L 50.89 57.82 L 47.17 57.76 L 43.42 57.37 L 40.48 56.83 L 38.22 56.18 L 34.73 54.78 L 32.60 53.60 L 30.75 52.23 L 29.90 51.76 L 28.93 51.77 L 28.10 52.27 L 27.63 53.12 L 26.96 54.99 L 26.04 56.64 L 24.92 58.14 L 23.80 59.35 L 23.80 54.25 L 23.80 54.25 Z M 84.08 16.77 L 84.50 16.33 L 84.76 15.81 L 84.84 15.22 L 84.73 14.62 L 82.75 9.15 L 82.66 8.51 L 82.81 7.91 L 83.17 7.41 L 83.72 7.08 L 84.34 6.98 L 84.95 7.13 L 85.46 7.51 L 85.79 8.05 L 86.72 10.62 L 87.29 11.43 L 88.19 11.83 L 89.17 11.72 L 89.95 11.12 L 91.97 8.05 L 93.45 4.81 L 93.78 4.27 L 94.29 3.89 L 94.90 3.74 L 95.52 3.84 L 96.07 4.18 L 96.43 4.68 L 96.58 5.27 L 96.49 5.91 L 95.33 8.60 L 94.00 11.01 L 92.50 13.15 L 89.94 16.05 L 87.27 18.43 L 84.48 20.46 L 81.92 21.99 L 77.52 24.07 L 75.61 21.34 L 79.25 19.73 L 81.50 18.48 L 84.08 16.77 Z M 52.09 13.61 L 55.57 13.84 L 58.90 14.50 L 62.11 15.59 L 65.15 17.09 L 67.97 18.98 L 70.59 21.28 L 72.57 23.51 L 74.27 25.90 L 75.69 28.48 L 72.31 26.82 L 68.69 25.41 L 67.95 25.31 L 67.26 25.50 L 66.69 25.93 L 66.32 26.57 L 66.22 27.31 L 66.41 28.00 L 66.83 28.57 L 67.48 28.95 L 71.60 30.60 L 75.35 32.59 L 78.75 34.90 L 78.98 35.08 L 79.73 36.01 L 80.00 37.17 L 80.00 49.18 L 76.03 46.67 L 71.74 44.57 L 67.10 42.89 L 62.30 41.70 L 57.31 40.96 L 52.09 40.71 L 46.88 40.97 L 41.88 41.71 L 37.07 42.91 L 32.40 44.60 L 28.12 46.69 L 24.18 49.18 L 24.18 37.17 L 24.45 36.00 L 25.22 35.06 L 28.95 32.51 L 33.03 30.38 L 37.50 28.67 L 42.13 27.45 L 46.98 26.70 L 52.09 26.44 L 56.72 26.66 L 61.24 27.30 L 61.99 27.29 L 62.64 27.01 L 63.14 26.50 L 63.42 25.81 L 63.37 24.90 L 62.92 24.16 L 62.92 24.16 L 62.92 24.16 L 62.48 23.82 L 61.94 23.63 L 57.07 22.94 L 52.09 22.70 L 47.80 22.88 L 43.66 23.37 L 39.64 24.18 L 35.71 25.32 L 32.00 26.75 L 28.48 28.47 L 30.09 25.59 L 32.00 22.98 L 34.22 20.64 L 36.72 18.58 L 39.42 16.87 L 42.36 15.47 L 45.45 14.45 L 48.69 13.83 L 52.09 13.61 Z M 7.68 5.91 L 7.59 5.27 L 7.74 4.68 L 8.10 4.18 L 8.65 3.84 L 9.27 3.74 L 9.89 3.89 L 10.39 4.27 L 10.72 4.81 L 12.20 8.05 L 14.22 11.12 L 15.00 11.72 L 15.98 11.83 L 16.88 11.43 L 17.45 10.62 L 18.38 8.05 L 18.71 7.51 L 19.22 7.13 L 19.83 6.98 L 20.45 7.08 L 21.00 7.41 L 21.37 7.91 L 21.52 8.51 L 21.42 9.15 L 19.44 14.62 L 19.33 15.22 L 19.41 15.81 L 19.67 16.33 L 20.10 16.77 L 22.66 18.47 L 24.91 19.72 L 28.54 21.33 L 26.64 24.07 L 22.24 21.99 L 19.68 20.45 L 16.89 18.42 L 14.23 16.05 L 11.67 13.14 L 10.17 11.00 L 8.84 8.60 L 7.68 5.91 Z M 10.67 36.12 L 13.62 33.53 L 16.88 31.48 L 20.41 29.97 L 24.17 29.05 L 23.26 31.86 L 22.93 32.11 L 21.57 33.55 L 20.73 35.28 L 18.73 35.60 L 16.75 36.23 L 14.78 37.18 L 11.99 38.99 L 9.37 41.17 L 6.96 43.55 L 4.90 45.88 L 6.29 42.35 L 8.20 39.11 L 10.67 36.12 Z M 19.13 44.04 L 16.18 46.56 L 12.94 48.54 L 9.43 49.98 L 5.72 50.86 L 7.59 48.47 L 9.89 45.88 L 12.39 43.46 L 15.01 41.40 L 16.89 40.25 L 18.69 39.49 L 20.45 39.06 L 20.45 42.61 L 19.13 44.04 Z M 20.06 55.60 L 20.06 64.94 L 19.51 64.09 L 19.04 62.98 L 18.74 61.74 L 18.63 60.27 L 18.74 58.80 L 19.04 57.56 L 19.51 56.44 L 20.06 55.60 Z M 70.05 96.31 L 66.46 96.42 L 65.71 96.61 L 65.09 97.09 L 64.73 97.78 L 64.68 98.56 L 65.85 106.64 L 58.77 102.42 L 58.07 102.17 L 57.33 102.22 L 56.67 102.55 L 56.19 103.11 L 52.09 110.42 L 47.99 103.11 L 47.50 102.55 L 46.84 102.22 L 46.10 102.17 L 45.41 102.42 L 38.32 106.64 L 39.50 98.56 L 39.45 97.78 L 39.08 97.09 L 38.47 96.61 L 37.71 96.42 L 34.13 96.31 L 37.29 92.94 L 41.81 94.37 L 46.73 95.25 L 52.09 95.57 L 57.45 95.25 L 62.36 94.37 L 66.89 92.94 L 70.05 96.31 Z M 72.25 85.68 L 69.62 87.48 L 66.64 89.01 L 63.29 90.24 L 59.81 91.11 L 56.09 91.64 L 52.09 91.83 L 48.09 91.64 L 44.36 91.11 L 40.89 90.24 L 37.53 89.01 L 34.56 87.48 L 31.92 85.68 L 29.45 83.40 L 27.45 80.86 L 25.87 78.04 L 24.74 75.00 L 24.04 71.70 L 23.80 68.08 L 23.80 64.27 L 25.10 63.23 L 26.97 61.45 L 28.73 59.31 L 30.33 56.59 L 32.75 57.99 L 36.70 59.63 L 39.58 60.48 L 43.14 61.13 L 47.49 61.54 L 51.82 61.54 L 56.93 61.01 L 62.93 59.87 L 63.51 59.63 L 63.96 59.22 L 64.26 58.69 L 64.37 58.07 L 64.38 55.36 L 66.25 57.26 L 68.59 59.35 L 71.17 61.28 L 74.04 62.99 L 77.12 64.29 L 80.38 65.03 L 80.38 68.08 L 80.13 71.70 L 79.44 75.01 L 78.31 78.04 L 76.73 80.86 L 74.72 83.40 L 72.25 85.68 Z M 84.11 64.94 L 84.11 55.60 L 84.66 56.44 L 85.14 57.56 L 85.43 58.80 L 85.55 60.27 L 85.43 61.74 L 85.14 62.98 L 84.66 64.10 L 84.11 64.94 Z M 83.73 42.80 L 83.73 39.08 L 85.46 39.54 L 87.25 40.32 L 89.10 41.47 L 91.69 43.53 L 94.16 45.94 L 96.43 48.50 L 98.28 50.86 L 94.57 49.98 L 91.07 48.54 L 87.82 46.56 L 84.88 44.04 L 83.73 42.80 Z" fill="#000000" fill-rule="nonzero" group-id="1,2" id="Shape" node-id="26" stroke="none" target-height="125.73463" target-width="103.79053" target-x="0.10498113" target-y="0.02000545"></path></g></g></svg>