<svg viewBox="0 0 1200 1200" xmlns:xlink="http://www.w3.org/1999/xlink" xmlns="http://www.w3.org/2000/svg" id="图层_1"><defs><style>.cls-1,.cls-11,.cls-19{fill:none;}.cls-12,.cls-13,.cls-14,.cls-17,.cls-2,.cls-6,.cls-7{fill:#f8b2a6;}.cls-10,.cls-11,.cls-12,.cls-13,.cls-14,.cls-15,.cls-17,.cls-19,.cls-2,.cls-20,.cls-21,.cls-22,.cls-23,.cls-6,.cls-9{stroke:#130000;}.cls-10,.cls-11,.cls-13,.cls-14,.cls-15,.cls-17,.cls-19,.cls-2,.cls-20,.cls-21,.cls-22,.cls-23,.cls-9{stroke-linecap:round;}.cls-10,.cls-11,.cls-13,.cls-14,.cls-15,.cls-19,.cls-2,.cls-20,.cls-21,.cls-22,.cls-23,.cls-9{stroke-linejoin:round;}.cls-11,.cls-15,.cls-2,.cls-20,.cls-9{stroke-width:9.18px;}.cls-3{fill:#34cae3;}.cls-4{clip-path:url(#clip-path);}.cls-5{fill:#ff9da1;}.cls-12,.cls-17,.cls-6{stroke-miterlimit:10;}.cls-13,.cls-6{stroke-width:6.92px;}.cls-8{clip-path:url(#clip-path-2);}.cls-9{fill:#3e4eb5;}.cls-10{fill:#ffa400;stroke-width:10.62px;}.cls-12{stroke-width:7.69px;}.cls-14{stroke-width:5.96px;}.cls-15,.cls-23{fill:#fff;}.cls-16{fill:#130000;}.cls-17{stroke-width:6.03px;}.cls-18{fill:#fa6d74;}.cls-19{stroke-width:25.53px;}.cls-20{fill:#ffc310;}.cls-21,.cls-22{fill:#629c58;}.cls-21{stroke-width:10.38px;}.cls-22{stroke-width:6.61px;}.cls-23{stroke-width:8.26px;}</style><clipPath id="clip-path"><rect height="1200" width="1200" class="cls-1"></rect></clipPath><clipPath id="clip-path-2"><path d="M550.37,819.89s2.49,112.53-14.63,129.65-207.85,97.51-276.33,245.87H979.78s-73.14-154.57-272.86-245.87C678.39,921,684.21,833.88,684.21,833.88Z" class="cls-2"></path></clipPath></defs><rect height="1200" width="1200" class="cls-3"></rect><g class="cls-4"><polygon points="116.79 -84.38 -41.25 191.18 116.79 474.84 277.36 195.23 116.79 -84.38" class="cls-5"></polygon><polygon points="436.34 -84.38 278.3 191.18 436.34 474.84 596.92 195.23 436.34 -84.38" class="cls-5"></polygon><polygon points="755.89 -84.38 597.86 191.18 755.89 474.84 916.47 195.23 755.89 -84.38" class="cls-5"></polygon><polygon points="1075.45 -84.38 917.41 191.18 1075.45 474.84 1236.02 195.23 1075.45 -84.38" class="cls-5"></polygon><polygon points="116.79 479.83 -41.25 755.39 116.79 1039.05 277.36 759.44 116.79 479.83" class="cls-5"></polygon><polygon points="436.34 479.83 278.3 755.39 436.34 1039.05 596.92 759.44 436.34 479.83" class="cls-5"></polygon><polygon points="755.89 479.83 597.86 755.39 755.89 1039.05 916.47 759.44 755.89 479.83" class="cls-5"></polygon><polygon points="1075.45 479.83 917.41 755.39 1075.45 1039.05 1236.02 759.44 1075.45 479.83" class="cls-5"></polygon><polygon points="116.79 1044.05 -41.25 1319.6 116.79 1603.26 277.36 1323.65 116.79 1044.05" class="cls-5"></polygon><polygon points="436.34 1044.05 278.3 1319.6 436.34 1603.26 596.92 1323.65 436.34 1044.05" class="cls-5"></polygon><polygon points="755.89 1044.05 597.86 1319.6 755.89 1603.26 916.47 1323.65 755.89 1044.05" class="cls-5"></polygon><polygon points="1075.45 1044.05 917.41 1319.6 1075.45 1603.26 1236.02 1323.65 1075.45 1044.05" class="cls-5"></polygon></g><path d="M866.69,525s17.12-39.94,57.07-28.53,39.94,57.06,28.53,85.59-51.36,45.65-74.18,40S855.28,542.11,866.69,525Z" class="cls-6"></path><path d="M550.37,819.89s2.49,112.53-14.63,129.65-207.85,97.51-276.33,245.87H979.78s-73.14-154.57-272.86-245.87C678.39,921,684.21,833.88,684.21,833.88Z" class="cls-7"></path><g class="cls-8"><polygon points="1032.03 1363.37 270.61 1382.03 270.61 949.07 1032.03 949.07 1032.03 1363.37" class="cls-9"></polygon><polyline points="441.66 981.72 441.37 1196.34 503.13 1196.34 503.13 960.51 441.66 981.72" class="cls-10"></polyline><polyline points="806.86 981.72 807.15 1196.34 745.39 1196.34 745.39 960.51 806.86 981.72" class="cls-10"></polyline></g><path d="M550.37,819.89s2.49,112.53-14.63,129.65-207.85,97.51-276.33,245.87H979.78s-73.14-154.57-272.86-245.87C678.39,921,684.21,833.88,684.21,833.88Z" class="cls-11"></path><path d="M885.67,576.89l-13.29-92c-.39-17.51,0-85.59-17.2-136.94-33.32-99.8-123.36-179.8-308.22-159.6C284.5,217,242.53,407.41,280.5,571.52c41.63,180,172.48,267,380.15,260C826.92,825.86,911.71,778.94,885.67,576.89Z" class="cls-2"></path><path d="M272,603.67s-44.77-24.58-76,9.38-3.52,91.3,23.83,111.69,75.09,13.44,93.39-5.2S292.74,613.26,272,603.67Z" class="cls-12"></path><path d="M218.49,656.23s32.36-13,57.06,11.42" class="cls-13"></path><path d="M884.36,567.82s3.71-29.6,41.52-28.54" class="cls-14"></path><path d="M580.4,581.42c-5.25,46.3-39.83,70-80.95,63.56s-62.74-41.16-64.61-80.35c-1.46-30.68,5.6-52.26,42.92-61.59,9.06-2.27,13.87-11.46,24.26-13.06C550.55,482.51,585.66,535.12,580.4,581.42Z" class="cls-15"></path><path d="M579.66,588.45c.81,11.34-4.46,19.11-9.52,27.5-9.67,16-25.46,27.88-44.79,26.12-29.43-2.67-52.34-29.55-52.23-62.66,0-14.73,2.95-31.12,14.91-36.25,10.24,8.54,26.12,16.8,26.12,16.8S504.7,540.77,503,533.83c5.59-9.33,17.07-11,29.2-9.9C561.6,526.6,577.61,560,579.66,588.45Z" class="cls-16"></path><path d="M520.69,469.45s-33.6,41.06-97.05,50.39" class="cls-11"></path><path d="M731.37,572.63C750.91,613.89,798,622.87,830.48,602S861.23,538.67,851,501.17c-11.2-41.05-33-37.25-57.86-39.19-8.4-.65-20.59-6-29.86-3.73C720,468.85,711.82,531.37,731.37,572.63Z" class="cls-15"></path><path d="M745,446.63s41.67,26.12,98.1,11.86" class="cls-11"></path><path d="M859.5,553.6c.81,11.34-4.46,19.11-9.52,27.49-9.68,16-25.46,27.89-44.79,26.13-29.43-2.67-52.34-29.55-52.23-62.66,0-14.74,2.95-31.13,14.91-36.25,10.24,8.54,26.12,16.8,26.12,16.8S784.54,505.92,782.8,499c5.59-9.33,17.07-11,29.2-9.9C841.44,491.75,857.44,525.11,859.5,553.6Z" class="cls-16"></path><path d="M643.67,698.39S675,662.6,709.33,678.52" class="cls-11"></path><path d="M676.44,695.73s3.22-4.93,10.45-4.27" class="cls-17"></path><ellipse transform="translate(-122.14 209.71) rotate(-13.13)" ry="26.13" rx="51.32" cy="635.54" cx="850.07" class="cls-18"></ellipse><ellipse transform="translate(-251.24 1095.45) rotate(-86.9)" ry="51.32" rx="26.13" cy="680.33" cx="452.57" class="cls-18"></ellipse><path d="M554.28,697.25s62.77-11.19,60.59,64.51" class="cls-11"></path><path d="M550.37,436.25s-30.62,26.67-97.14-3.46" class="cls-19"></path><path d="M818.25,410.77S776.63,391.13,722,424" class="cls-19"></path><path d="M589.74,81.27c91.44-9.33,119.77,47.52,119.77,57.37,0,0,38.71-48,79.91,21,0,0,99.54-10.75,132.5,156.76,0,0,92.61-13.7,84.37,144,0,0,33,88.68-8.24,118.24,0,0,24.72,118.25-49.43,157.66,0,0-23,61.62-80.82,56,0,0-88.83,47.17-195.95,37.32,0,0,214.62-13.06,205.28-171.69,10.24-26.77,14.91-77,1.5-104.07a75.77,75.77,0,0,1-8.08-36.09c1.76-55.65-2.75-65.13-12.08-93.12-28-63.45-113.84-67.18-113.84-67.18s-21.9-38.17-91.44-44.79c-78.38-7.47-126.91,48.52-126.91,48.52-4.07,2.86-63.92,5.58-85.84,57.85,1.54,9.29-79.57,54.56-42.93,153,10.35,27.8-1.55,66.33,1.87,93.31,16.8,132.5,93.31,166.1,261.27,166.1,0,0-134.37,48.52-218.35,9.33C393.14,817.89,384.45,796,384.45,796s-76.51,13-76.51-56c0,0-91.91-46-67.19-164.23,0,0-75.07-23.32-9.15-141.57,0,0-40.4-219.95,149.12-229.81,0,0,24.75-79.42,98.91-59.71C479.63,144.73,517,88.7,589.74,81.27Z" class="cls-15"></path><path d="M176.1,214.33C156.85,231,114.24,296,159,359.73c55.84,79.6,160.66,32.75,170,0,7-24.47,10.46-16.73,10.46-16.73s27.31-21,17.87-68.26c-5.11-25.54-31.21-69-69.83-82.68C254.66,180.43,213.21,182.17,176.1,214.33Z" class="cls-20"></path><path d="M252.8,360.32s17.14-16.32,12.37-54.44c-2.47-19.79-29.69-37.11-19.54-50.64,5.82-7.75,22.93-5.59,41.81,8.58,37.78,28.33,42.07,56.91,44.54,89.07" class="cls-20"></path><path d="M252.8,288.56S225.58,291,220.64,323.2" class="cls-2"></path><path d="M240.43,263.82s-27.22-9.9-49.49,4.95" class="cls-2"></path><path d="M264,248.44s-3.49-22.55-23.62-33.28" class="cls-2"></path><path d="M293,264.16s18.66-16.79,13.06-41.05" class="cls-2"></path><path d="M998.14,150.88c19.25,16.68,61.86,81.65,17.15,145.4-55.84,79.6-160.66,32.75-170,0-7-24.47-10.46-16.73-10.46-16.73s-27.31-21-17.87-68.26c5.11-25.54,31.21-69,69.83-82.68C919.58,117,961,118.71,998.14,150.88Z" class="cls-20"></path><path d="M921.44,296.87s-17.14-16.32-12.37-54.44c2.47-19.79,29.69-37.11,19.54-50.64-5.82-7.75-22.93-5.59-41.81,8.58-37.78,28.33-42.07,56.91-44.54,89.07" class="cls-20"></path><path d="M921.44,225.11s27.22,2.47,32.16,34.64" class="cls-2"></path><path d="M933.81,200.37s27.22-9.9,49.49,4.95" class="cls-2"></path><path d="M910.25,185s3.49-22.54,23.62-33.28" class="cls-2"></path><path d="M881.23,200.71s-18.66-16.79-13.06-41.05" class="cls-2"></path><path d="M597.09,184.51s28.8-64,17.07-128.88c0,0,51.87,64.61,12.14,147.42Z" class="cls-21"></path><path d="M585.79,194.41S578.27,151,539.35,135.3c0,0,52.77,0,82.33,61.22Z" class="cls-22"></path><path d="M545.12,202.33s48.41-37.47,91.06,14.25c0,0,28.93-20.54,52-4" class="cls-23"></path><path d="M224,1195.41l210.88-270.6S400.3,855.42,446,781.11s69.05-56,74.65-48.52c0,0,11.11-14.62,24.26-7.47,9.5,5.17,5.6,18.66-3.74,29.86,0,0,9.95-12,22.4-3.73,5.6,3.73,3.73,14.93,3.73,14.93s20.87,6.34,14.93,22.39-34,55-28,76.52,26.76,45.65,13.06,84c-24.67,69-23.13,51.56-149.3,246.34Z" class="cls-2"></path><path d="M481.49,792.31s18.36-43.28,39-59" class="cls-2"></path><path d="M541.21,755s-18.66,28-29.86,48.52" class="cls-2"></path><path d="M567.34,766.18S545,796,535.62,816.57" class="cls-2"></path><path d="M647.32,330.77c17.06-8.75,26.4,23,1.54,31.58-35.17,12.18-60-43.89-20-68.52s89.27,6.16,92.35,55.41S653.19,434,595,395.41c-63.36-42-23.92-108.85-3.39-120" class="cls-15"></path></svg>