<?xml version="1.0" standalone="no"?><!DOCTYPE svg PUBLIC "-//W3C//DTD SVG 1.1//EN" "http://www.w3.org/Graphics/SVG/1.1/DTD/svg11.dtd"><svg height="1200" node-id="1" sillyvg="true" template-height="1200" template-width="1200" version="1.1" viewBox="0 0 1200 1200" width="1200" xmlns="http://www.w3.org/2000/svg" xmlns:xlink="http://www.w3.org/1999/xlink"><defs node-id="84"></defs><g node-id="237"><path d="M 0.00 0.00 L 1200.00 0.00 L 1200.00 1200.00 L 0.00 1200.00 Z" fill="#f4ffe1" fill-rule="nonzero" group-id="1" node-id="87" stroke="none" target-height="1200" target-width="1200" target-x="0" target-y="0"></path><path d="M 1049.00 151.00 L 1198.08 151.00 C 1198.08 233.64 1131.38 300.63 1049.08 300.68 L 1198.08 300.68 C 1198.08 383.34 1131.34 450.35 1049.00 450.35 L 1198.08 450.35 C 1198.08 532.99 1131.38 599.99 1049.08 600.03 L 1198.68 600.03 L 1198.68 1.28 L 1198.08 1.28 C 1198.11 84.00 1131.37 151.00 1049.00 151.00 Z" fill="#e5f4c6" fill-rule="nonzero" group-id="1" node-id="89" stroke="none" target-height="598.75" target-width="149.68005" target-x="1049" target-y="1.28"></path><path d="M 1049.03 599.99 L 1049.11 599.99 L 1048.95 599.99 L 1049.03 599.99 Z" fill="#e5f4c6" fill-rule="nonzero" group-id="1" node-id="91" stroke="none" target-height="0" target-width="0.16003418" target-x="1048.95" target-y="599.99"></path><path d="M 600.59 1.32 L 599.41 1.32 C 599.41 84.00 532.66 151.00 450.28 151.00 L 599.41 151.00 C 599.41 233.63 532.66 300.63 450.41 300.71 L 599.41 300.71 C 599.41 383.35 532.66 450.34 450.28 450.34 L 599.41 450.34 C 599.41 532.98 532.66 599.97 450.41 600.06 L 599.41 600.06 C 599.41 682.69 532.66 749.78 450.28 749.78 L 599.41 749.78 C 599.41 832.40 532.66 899.41 450.41 899.41 L 599.41 899.41 C 599.41 982.04 532.66 1049.12 450.28 1049.12 L 599.41 1049.12 C 599.41 1131.75 532.66 1198.75 450.41 1198.75 L 749.63 1198.75 C 667.34 1198.75 600.63 1131.75 600.63 1049.12 L 749.72 1049.12 C 667.34 1049.12 600.59 982.04 600.59 899.41 L 749.59 899.41 C 667.30 899.41 600.59 832.41 600.59 749.78 L 749.72 749.78 C 667.34 749.78 600.59 682.69 600.59 600.06 L 749.59 600.06 C 667.30 599.97 600.59 532.98 600.59 450.34 L 749.72 450.34 C 667.34 450.34 600.59 383.34 600.59 300.71 L 749.59 300.71 C 667.30 300.63 600.59 233.63 600.59 151.00 L 749.72 151.00 C 667.34 151.00 600.59 84.00 600.59 1.32 Z" fill="#e5f4c6" fill-rule="nonzero" group-id="1" node-id="93" stroke="none" target-height="1197.43" target-width="299.43997" target-x="450.28" target-y="1.32"></path><path d="M 749.60 599.99 L 749.68 599.99 L 749.76 599.99 L 749.60 599.99 Z" fill="#e5f4c6" fill-rule="nonzero" group-id="1" node-id="95" stroke="none" target-height="0" target-width="0.16003418" target-x="749.6" target-y="599.99"></path><path d="M 1049.03 899.37 L 1049.11 899.36 L 1048.95 899.36 L 1049.03 899.37 Z" fill="#e5f4c6" fill-rule="nonzero" group-id="1" node-id="97" stroke="none" target-height="0.010009766" target-width="0.16003418" target-x="1048.95" target-y="899.36"></path><path d="M 1049.00 749.69 L 1198.08 749.69 C 1198.08 832.32 1131.38 899.32 1049.08 899.36 L 1198.08 899.36 C 1198.11 982.00 1131.37 1049.00 1049.00 1049.00 L 1198.08 1049.00 C 1198.08 1131.64 1131.38 1198.64 1049.08 1198.68 L 1198.68 1198.68 L 1198.68 600.00 L 1198.08 600.00 C 1198.11 682.67 1131.37 749.69 1049.00 749.69 Z" fill="#e5f4c6" fill-rule="nonzero" group-id="1" node-id="99" stroke="none" target-height="598.68005" target-width="149.68005" target-x="1049" target-y="600"></path><path d="M 900.00 1049.00 L 1049.00 1049.00 C 966.69 1049.00 900.00 982.00 900.00 899.37 L 1049.00 899.37 C 966.72 899.37 900.00 832.37 900.00 749.70 L 1049.00 749.70 C 966.70 749.70 900.00 682.67 900.00 600.00 L 1049.00 600.00 C 966.72 600.00 900.00 533.00 900.00 450.29 L 1049.00 450.29 C 966.67 450.29 899.93 383.29 899.93 300.63 L 1048.93 300.63 C 966.65 300.63 899.93 233.63 899.93 150.96 L 1049.00 150.96 C 966.69 151.00 900.00 83.94 900.00 1.27 L 898.81 1.27 C 898.76 83.94 832.00 151.00 749.69 151.00 L 898.76 151.00 C 898.76 233.63 832.06 300.63 749.76 300.67 L 898.76 300.67 C 898.76 383.34 832.02 450.33 749.69 450.33 L 898.76 450.33 C 898.76 533.00 832.06 600.00 749.76 600.04 L 898.76 600.04 C 898.76 682.70 832.02 749.73 749.69 749.73 L 898.76 749.73 C 898.76 832.36 832.06 899.35 749.76 899.40 L 898.76 899.40 C 898.76 982.00 832.00 1049.00 749.69 1049.00 L 898.76 1049.00 C 898.76 1131.67 832.06 1198.66 749.76 1198.70 L 1048.92 1198.70 C 966.65 1198.69 900.00 1131.70 900.00 1049.00 Z" fill="#e5f4c6" fill-rule="nonzero" group-id="1" node-id="101" stroke="none" target-height="1197.4299" target-width="299.31" target-x="749.69" target-y="1.27"></path><path d="M 450.32 599.99 L 450.40 599.99 L 450.24 599.99 L 450.32 599.99 Z" fill="#e5f4c6" fill-rule="nonzero" group-id="1" node-id="103" stroke="none" target-height="0" target-width="0.16000366" target-x="450.24" target-y="599.99"></path><path d="M 150.89 599.99 L 150.96 599.99 L 151.04 599.99 L 150.89 599.99 Z" fill="#e5f4c6" fill-rule="nonzero" group-id="1" node-id="105" stroke="none" target-height="0" target-width="0.1499939" target-x="150.89" target-y="599.99"></path><path d="M 1.89 450.31 L 151.00 450.31 C 68.67 450.31 1.93 383.31 1.93 300.64 L 150.93 300.64 C 68.63 300.59 1.93 233.64 1.93 150.96 L 151.00 150.96 C 68.63 151.00 1.89 84.00 1.89 1.28 L 1.29 1.28 L 1.29 600.00 L 150.89 600.00 C 68.59 600.00 1.89 533.00 1.89 450.31 Z" fill="#e5f4c6" fill-rule="nonzero" group-id="1" node-id="107" stroke="none" target-height="598.72" target-width="149.71" target-x="1.29" target-y="1.28"></path><path d="M 301.24 1049.00 L 450.31 1049.00 C 367.98 1049.00 301.24 982.00 301.24 899.34 L 450.24 899.34 C 367.96 899.34 301.24 832.34 301.24 749.67 L 450.31 749.67 C 367.98 749.67 301.25 682.67 301.24 599.98 L 450.24 599.98 C 367.96 599.98 301.24 532.98 301.24 450.27 L 450.31 450.27 C 367.98 450.27 301.24 383.27 301.24 300.61 L 450.24 300.61 C 367.96 300.61 301.24 233.61 301.24 150.94 L 450.31 150.94 C 367.98 150.94 301.24 83.94 301.24 1.24 L 300.06 1.24 C 300.06 83.94 233.31 151.00 151.00 151.00 L 300.06 151.00 C 300.06 233.63 233.36 300.63 151.06 300.67 L 300.06 300.67 C 300.06 383.34 233.31 450.33 150.98 450.33 L 300.06 450.33 C 300.06 533.00 233.36 600.00 151.06 600.04 L 300.06 600.04 C 300.00 682.67 233.30 749.70 151.00 749.70 L 300.06 749.70 C 300.06 832.33 233.36 899.32 151.06 899.37 L 300.06 899.37 C 300.06 982.00 233.31 1049.00 151.00 1049.00 L 300.06 1049.00 C 300.06 1131.67 233.36 1198.66 151.06 1198.70 L 450.22 1198.70 C 367.94 1198.69 301.24 1131.70 301.24 1049.00 Z" fill="#e5f4c6" fill-rule="nonzero" group-id="1" node-id="109" stroke="none" target-height="1197.46" target-width="299.33002" target-x="150.98" target-y="1.24"></path><path d="M 151.04 899.36 L 150.89 899.36 L 150.96 899.37 L 151.04 899.36 Z" fill="#e5f4c6" fill-rule="nonzero" group-id="1" node-id="111" stroke="none" target-height="0.010009766" target-width="0.1499939" target-x="150.89" target-y="899.36"></path><path d="M 1.89 1049.00 L 151.00 1049.00 C 68.63 1049.00 1.89 982.00 1.89 899.36 L 150.89 899.36 C 68.59 899.36 1.89 832.36 1.89 749.69 L 151.00 749.69 C 68.67 749.69 1.93 682.69 1.93 600.01 L 1.33 600.01 L 1.33 1198.72 L 150.93 1198.72 C 68.59 1198.68 1.89 1131.68 1.89 1049.00 Z" fill="#e5f4c6" fill-rule="nonzero" group-id="1" node-id="113" stroke="none" target-height="598.70996" target-width="149.67" target-x="1.33" target-y="600.01"></path></g><g node-id="238"><path d="M 722.37 831.37 C 738.68 830.46 754.99 829.71 771.31 829.10 C 776.61 820.77 780.81 811.78 783.78 802.36 C 759.35 801.10 734.91 800.25 710.46 799.82 C 622.20 798.14 533.91 801.62 446.06 810.27 C 451.49 840.87 473.51 866.44 497.78 884.55 C 514.08 896.76 532.30 906.18 551.69 912.43 C 541.18 878.68 536.96 843.28 539.25 808.00 C 539.35 806.62 541.51 806.61 541.42 808.00 C 539.10 843.57 543.43 879.25 554.19 913.23 C 562.98 915.90 571.98 917.80 581.09 918.91 C 608.82 922.25 637.31 916.91 663.50 907.82 C 690.98 898.32 717.23 884.04 739.39 865.14 C 751.09 855.36 761.35 843.97 769.88 831.33 C 754.04 831.94 738.20 832.68 722.37 833.55 C 721.00 833.61 721.00 831.45 722.37 831.37 Z M 652.81 909.30 C 652.68 910.68 650.51 910.69 650.64 909.30 C 653.91 874.07 656.15 838.45 651.05 803.30 C 650.85 801.94 652.93 801.35 653.13 802.73 C 658.27 838.08 656.10 873.85 652.81 909.30 Z" fill="#ffffff" fill-rule="nonzero" group-id="2" node-id="117" stroke="none" target-height="124.114685" target-width="337.72003" target-x="446.06" target-y="798.1353"></path><path d="M 992.37 191.86 C 1019.02 177.86 1031.25 150.26 1034.12 121.45 C 1023.00 126.82 1010.82 129.45 998.64 131.10 C 950.86 137.63 886.72 130.18 862.97 182.65 C 878.54 189.89 894.89 195.33 911.70 198.85 C 938.17 204.25 967.86 204.75 992.37 191.86 Z" fill="#172345" fill-rule="nonzero" group-id="2" node-id="119" stroke="none" target-height="83.3" target-width="171.15002" target-x="862.97" target-y="121.45"></path><path d="M 1037.66 428.66 C 1020.94 416.49 1002.66 406.63 983.31 399.33 C 949.90 387.03 914.47 384.85 879.21 386.92 C 842.27 389.09 805.62 394.69 768.62 396.10 C 725.30 397.75 682.49 393.22 640.70 381.54 C 559.55 358.86 476.43 339.29 391.88 336.61 C 347.95 335.22 303.38 338.49 261.04 350.85 C 224.33 361.56 187.38 379.39 161.04 407.79 C 142.79 427.47 130.17 453.45 133.19 480.79 C 136.12 507.33 153.45 529.39 175.28 543.69 C 205.56 563.53 243.04 570.19 278.69 570.50 C 281.69 570.50 283.69 570.56 286.23 569.00 C 287.80 568.05 289.23 566.85 290.76 565.81 C 292.62 564.53 294.51 563.30 296.40 562.08 C 296.46 562.03 296.53 561.98 296.61 561.95 L 298.61 560.68 C 304.85 556.78 311.29 553.18 317.86 549.86 C 330.94 543.31 344.46 537.67 358.32 533.00 C 423.22 510.88 493.53 505.24 561.69 506.25 C 632.88 507.18 703.74 516.19 772.90 533.11 C 802.11 540.33 831.06 549.11 858.90 560.60 C 876.97 568.07 894.90 576.66 911.05 587.79 C 911.25 587.84 911.42 587.96 911.54 588.13 C 914.04 589.86 916.50 591.66 918.91 593.51 C 939.02 592.08 958.86 588.02 977.91 581.43 C 1008.35 570.66 1037.46 551.99 1055.71 524.83 C 1068.24 506.19 1076.39 481.36 1067.45 459.51 C 1061.75 445.68 1049.42 437.09 1037.66 428.66 Z" fill="#172345" fill-rule="nonzero" group-id="2" node-id="121" stroke="none" target-height="258.29" target-width="946.22003" target-x="130.17" target-y="335.22"></path><path d="M 610.26 1027.83 C 603.64 1022.06 593.88 1020.60 586.32 1025.45 C 576.21 1031.92 574.97 1045.22 576.32 1056.07 C 578.19 1068.22 584.75 1085.00 598.64 1087.43 C 601.61 1088.02 604.70 1087.56 607.37 1086.12 L 607.37 1086.12 C 614.59 1082.20 618.12 1071.62 619.37 1063.89 C 621.30 1051.97 620.37 1037.74 611.25 1028.84 C 610.72 1028.78 610.31 1028.36 610.26 1027.83 Z" fill="#5aacba" fill-rule="nonzero" group-id="2" node-id="123" stroke="none" target-height="67.41907" target-width="46.330017" target-x="574.97" target-y="1020.6"></path><path d="M 541.74 963.00 C 558.47 981.39 572.39 1002.32 585.33 1023.49 C 586.40 1022.83 587.53 1022.26 588.70 1021.79 C 596.48 1018.69 605.00 1020.79 611.25 1025.86 C 624.37 1004.17 638.51 982.70 655.52 963.86 C 617.85 970.36 579.31 970.06 541.74 963.00 Z" fill="#ffffff" fill-rule="nonzero" group-id="2" node-id="125" stroke="none" target-height="62.859985" target-width="113.78003" target-x="541.74" target-y="963"></path><path d="M 717.54 1105.79 C 717.19 1105.44 717.12 1104.90 717.37 1104.48 C 724.11 1095.05 729.29 1083.90 730.02 1072.20 C 731.02 1055.54 721.61 1041.62 708.30 1032.37 C 706.40 1031.05 704.44 1029.84 702.42 1028.72 L 702.22 1028.61 C 676.22 1014.28 643.56 1018.17 618.04 1032.22 C 617.62 1032.48 617.08 1032.39 616.76 1032.02 L 616.76 1032.02 C 624.21 1043.42 623.71 1059.34 619.87 1071.86 C 618.01 1077.93 614.42 1083.93 609.40 1087.22 C 620.50 1105.22 630.01 1124.22 641.66 1141.99 C 652.24 1158.10 664.79 1173.40 681.17 1183.93 C 693.86 1192.07 710.42 1198.72 724.17 1189.11 C 735.53 1181.18 739.69 1166.21 739.32 1153.00 C 738.82 1135.00 730.25 1118.30 717.54 1105.79 Z" fill="#5aacba" fill-rule="nonzero" group-id="2" node-id="127" stroke="none" target-height="184.43994" target-width="130.28998" target-x="609.4" target-y="1014.28"></path><path d="M 811.81 951.13 C 807.34 946.07 802.81 938.87 796.39 936.02 C 794.85 935.33 793.39 935.66 791.49 935.82 L 779.49 936.82 L 730.49 940.88 C 716.44 947.22 701.93 952.51 687.10 956.70 C 677.83 959.33 668.46 961.51 658.99 963.26 C 641.14 982.62 626.49 1004.91 612.91 1027.40 C 613.59 1028.05 614.24 1028.75 614.84 1029.48 C 615.32 1030.07 615.78 1030.68 616.22 1031.31 C 616.28 1031.24 616.35 1031.20 616.43 1031.17 L 616.43 1031.17 C 616.47 1030.85 616.67 1030.56 616.96 1030.41 C 642.50 1016.32 676.96 1012.33 702.96 1026.25 L 715.96 1017.34 L 736.96 1002.93 C 740.55 1000.47 744.25 997.14 748.18 995.25 C 751.49 993.66 755.96 993.14 759.51 992.25 C 763.51 991.32 767.51 990.46 771.51 989.66 C 780.04 987.95 788.63 986.53 797.24 985.25 C 806.75 983.84 816.24 982.59 825.83 981.31 C 825.94 981.27 826.07 981.25 826.19 981.26 C 832.53 980.41 838.86 979.53 845.19 978.60 C 833.09 970.73 821.41 962.00 811.81 951.13 Z" fill="#486a9b" fill-rule="nonzero" group-id="2" node-id="129" stroke="none" target-height="95.98004" target-width="232.28003" target-x="612.91" target-y="935.33"></path><path d="M 464.60 1072.20 C 465.33 1083.90 470.51 1095.05 477.25 1104.48 C 477.49 1104.91 477.42 1105.44 477.08 1105.79 C 463.14 1119.51 454.17 1138.39 455.38 1158.22 C 456.18 1171.39 462.07 1185.85 474.79 1191.60 C 490.71 1198.79 508.49 1188.36 520.85 1178.71 C 551.41 1154.84 566.50 1117.23 586.50 1085.20 C 586.65 1084.96 586.88 1084.78 587.16 1084.72 C 587.43 1084.65 587.72 1084.69 587.96 1084.84 L 588.14 1084.68 C 579.99 1078.02 575.75 1066.40 574.26 1056.52 C 574.25 1056.49 574.25 1056.45 574.26 1056.42 C 574.25 1056.36 574.25 1056.29 574.26 1056.23 C 573.26 1048.42 573.79 1039.41 577.41 1032.32 C 577.14 1032.40 576.85 1032.36 576.61 1032.22 C 551.74 1018.52 520.08 1014.48 494.41 1027.55 C 494.30 1027.64 494.18 1027.71 494.04 1027.74 C 491.38 1029.11 488.82 1030.66 486.36 1032.37 C 473.00 1041.62 463.56 1055.54 464.60 1072.20 Z" fill="#5aacba" fill-rule="nonzero" group-id="2" node-id="131" stroke="none" target-height="184.31006" target-width="133.97" target-x="454.17" target-y="1014.48"></path><path d="M 986.00 1139.45 C 958.19 1100.92 926.58 1064.86 891.06 1033.26 C 881.69 1039.10 873.70 1046.93 866.63 1055.35 C 850.34 1074.72 838.14 1097.75 829.37 1121.40 C 820.37 1145.62 814.80 1171.53 815.90 1197.46 C 815.96 1198.85 813.79 1198.84 813.73 1197.46 C 813.21 1182.68 814.56 1167.90 817.73 1153.46 C 823.42 1127.11 833.44 1101.88 847.38 1078.81 C 858.11 1061.00 871.54 1043.04 889.38 1031.81 C 869.47 1014.17 848.25 998.05 825.91 983.61 C 814.41 985.15 802.91 986.61 791.43 988.44 C 783.12 989.75 774.83 991.23 766.61 993.00 C 761.06 994.19 754.01 994.94 748.93 997.46 C 744.02 999.89 739.41 1003.97 734.93 1007.06 L 705.00 1027.42 C 711.76 1031.35 717.73 1036.51 722.61 1042.62 C 732.44 1054.90 734.39 1070.45 729.61 1085.24 C 727.70 1091.09 725.04 1096.67 721.72 1101.85 C 721.00 1102.98 719.81 1104.28 720.01 1105.23 C 720.27 1106.43 722.83 1108.23 723.70 1109.23 C 726.04 1111.91 728.18 1114.75 730.12 1117.73 C 742.93 1137.39 747.74 1168.62 729.91 1187.05 C 709.60 1208.05 679.25 1188.05 662.91 1172.15 C 638.71 1148.49 624.91 1116.79 607.43 1088.34 C 603.75 1090.12 599.51 1090.34 595.67 1088.94 C 593.21 1088.12 590.91 1086.90 588.85 1085.33 L 588.48 1085.66 C 588.51 1085.90 588.45 1086.14 588.32 1086.34 C 568.42 1118.20 553.39 1155.34 523.38 1179.45 C 512.91 1187.87 499.51 1196.40 485.55 1196.17 C 475.29 1196.00 466.33 1190.56 460.66 1182.17 C 445.84 1160.17 454.04 1129.26 469.96 1110.28 C 470.65 1109.46 474.62 1106.06 474.70 1105.18 C 474.77 1104.50 473.55 1103.10 473.05 1102.31 C 471.48 1099.87 470.05 1097.35 468.76 1094.75 C 465.76 1088.83 463.73 1082.46 462.76 1075.89 C 460.46 1059.03 468.11 1044.13 481.10 1033.65 C 484.40 1031.00 487.94 1028.66 491.66 1026.65 L 480.10 1018.75 L 459.62 1004.75 C 456.13 1002.37 452.50 999.08 448.62 997.26 C 445.00 995.40 440.00 994.89 436.05 994.00 C 432.10 993.11 428.05 992.25 424.05 991.47 C 415.81 989.87 407.53 988.53 399.23 987.31 C 395.23 986.72 391.23 986.16 387.23 985.62 C 371.03 996.45 355.49 1008.21 340.67 1020.86 C 336.79 1024.19 332.96 1027.56 329.17 1030.97 L 329.17 1030.97 C 338.99 1036.97 347.35 1045.07 354.72 1053.83 C 370.94 1073.13 383.14 1095.92 392.01 1119.45 C 401.35 1144.23 407.21 1170.87 406.08 1197.45 C 406.02 1198.84 403.86 1198.84 403.92 1197.45 C 404.45 1182.86 403.13 1168.26 400.00 1154.00 C 394.44 1128.29 384.74 1103.66 371.28 1081.07 C 360.38 1062.72 346.63 1044.07 328.10 1032.78 C 327.90 1032.67 327.75 1032.50 327.66 1032.29 C 275.18 1080.09 232.40 1137.88 197.66 1199.62 C 200.98 1199.10 204.94 1199.62 208.24 1199.62 L 229.59 1199.62 L 297.96 1199.51 L 393.01 1199.36 L 505.47 1199.19 L 626.06 1199.00 L 745.52 1198.82 L 854.52 1198.65 L 943.89 1198.51 L 1004.31 1198.42 L 1024.60 1198.42 C 1012.57 1178.26 999.72 1158.53 986.00 1139.45 Z" fill="#172345" fill-rule="nonzero" group-id="2" node-id="133" stroke="none" target-height="224.44006" target-width="826.93994" target-x="197.66" target-y="983.61"></path><path d="M 387.36 983.44 C 393.98 984.35 400.60 985.28 407.20 986.32 C 415.51 987.63 423.80 989.10 432.02 990.87 C 437.59 992.07 444.83 992.81 449.94 995.36 C 454.47 997.63 458.70 1001.36 462.87 1004.20 L 493.87 1025.40 C 519.96 1012.40 552.26 1016.40 577.66 1030.35 C 577.89 1030.47 578.06 1030.67 578.14 1030.91 C 579.54 1028.53 581.37 1026.44 583.54 1024.74 C 570.24 1002.97 555.93 981.43 538.54 962.74 C 538.45 962.64 538.37 962.53 538.32 962.40 C 515.45 957.86 493.16 950.80 471.85 941.35 L 471.62 941.25 L 450.19 939.48 L 417.14 936.77 C 412.28 936.37 404.65 934.08 400.48 936.77 C 394.09 940.93 389.77 947.30 384.70 952.86 C 375.43 963.02 364.27 971.22 352.80 978.72 C 364.13 980.40 375.50 981.84 386.80 983.38 C 386.99 983.34 387.18 983.36 387.36 983.44 Z" fill="#486a9b" fill-rule="nonzero" group-id="2" node-id="135" stroke="none" target-height="96.83002" target-width="230.73999" target-x="352.8" target-y="934.08"></path><path d="M 890.77 578.00 C 866.17 564.63 839.71 554.77 813.02 546.48 C 780.73 536.59 747.85 528.75 714.58 523.00 C 641.21 510.06 565.85 505.00 491.47 510.27 C 426.23 514.92 356.95 527.08 300.47 562.03 C 299.65 562.54 298.84 563.03 298.02 563.59 C 254.80 712.27 326.01 870.32 466.01 936.44 C 606.01 1002.57 773.31 957.17 860.69 829.35 C 831.29 829.50 801.90 830.13 772.53 831.22 C 762.23 847.22 748.40 861.14 733.41 872.75 C 709.54 891.06 682.48 904.79 653.61 913.25 C 625.90 921.45 596.61 924.83 568.13 918.95 C 563.37 917.95 558.66 916.75 553.99 915.36 C 553.73 915.51 553.42 915.54 553.13 915.46 C 552.85 915.37 552.61 915.18 552.47 914.91 C 528.21 907.36 505.77 894.90 486.54 878.29 C 466.00 860.54 448.18 837.00 443.75 809.60 C 443.69 809.28 443.78 808.96 443.98 808.71 C 444.16 808.44 444.46 808.26 444.79 808.23 C 469.60 805.74 494.45 803.69 519.34 802.09 C 607.86 796.32 696.63 795.71 785.22 800.26 C 785.41 800.27 785.58 800.33 785.74 800.43 C 786.19 800.64 786.42 801.15 786.27 801.63 C 783.37 811.26 779.22 820.46 773.92 829.00 C 803.33 827.92 832.76 827.31 862.19 827.18 C 864.62 823.56 866.98 819.89 869.28 816.18 C 910.74 748.75 924.93 667.09 909.68 589.48 C 903.58 585.34 897.26 581.50 890.77 578.00 Z" fill="#ffffff" fill-rule="nonzero" group-id="2" node-id="137" stroke="none" target-height="497.56665" target-width="670.12976" target-x="254.8002" target-y="505"></path><path d="M 866.51 203.08 C 862.15 192.82 855.39 183.75 846.79 176.65 C 827.94 160.80 802.96 153.54 779.24 148.87 C 752.46 143.59 725.13 141.65 697.94 139.82 C 673.79 138.20 649.84 136.63 626.02 132.14 C 597.55 126.77 569.38 119.94 540.78 115.20 C 512.51 110.51 482.58 106.83 454.14 112.26 C 426.74 117.49 404.22 134.63 391.47 159.56 C 378.04 185.83 377.84 216.56 380.09 245.26 C 381.20 259.51 383.01 273.71 384.70 287.91 C 393.09 284.56 402.35 286.47 411.02 284.80 C 415.45 283.95 419.81 282.65 424.33 282.29 C 429.61 281.86 435.01 282.29 440.33 282.49 C 450.98 282.89 461.59 282.49 472.24 282.43 C 477.00 282.44 481.74 282.89 486.41 283.79 C 491.47 284.69 496.58 285.30 501.67 286.06 C 501.78 285.86 502.01 285.77 502.23 285.83 C 515.83 289.14 529.72 291.12 543.23 294.64 C 556.51 298.09 570.23 299.73 583.36 303.64 C 583.45 303.52 583.59 303.45 583.74 303.44 C 583.89 303.43 584.03 303.48 584.14 303.58 C 585.77 305.08 588.02 305.52 590.14 306.08 C 592.24 306.68 594.31 307.39 596.34 308.20 C 600.97 310.13 605.71 311.76 610.55 313.07 C 618.22 315.26 626.20 316.18 634.02 317.65 C 642.19 319.18 650.42 320.35 658.59 321.81 C 666.76 323.27 674.69 324.81 682.69 326.61 C 689.26 328.05 696.60 328.97 702.69 331.97 L 702.79 331.97 C 709.18 333.09 715.63 334.26 722.09 334.90 C 727.84 335.47 733.63 335.20 739.37 335.90 C 745.48 336.67 751.37 338.69 757.50 339.29 C 762.40 339.76 767.38 339.16 772.23 340.15 C 772.31 340.10 772.39 340.08 772.48 340.08 C 780.59 340.14 788.62 341.41 796.71 341.86 C 800.35 342.06 803.93 342.00 807.54 342.56 C 811.47 343.14 815.44 343.34 819.41 343.18 C 827.53 342.96 835.65 343.68 843.77 343.46 C 849.72 343.33 855.63 342.51 861.38 341.00 C 861.95 330.00 862.62 319.06 863.98 308.19 C 866.27 289.91 870.13 271.85 871.78 253.49 C 873.29 236.64 873.08 218.94 866.51 203.08 Z" fill="#172345" fill-rule="nonzero" group-id="2" node-id="139" stroke="none" target-height="236.84999" target-width="495.44998" target-x="377.84" target-y="106.83"></path><path d="M 845.09 344.53 C 836.83 344.90 828.57 344.12 820.32 344.28 C 816.55 344.53 812.76 344.44 809.00 344.00 C 804.89 343.45 800.76 343.11 796.62 343.00 C 788.62 342.56 780.70 341.32 772.68 341.23 C 772.56 341.33 772.39 341.36 772.24 341.32 C 766.59 340.06 760.67 340.94 754.94 340.14 C 749.21 339.34 743.53 337.46 737.70 336.87 C 731.87 336.28 725.82 336.56 719.92 335.79 C 714.02 335.02 708.24 334.08 702.43 333.06 C 702.34 333.06 702.26 333.05 702.18 333.01 C 698.83 331.52 695.30 330.46 691.68 329.85 C 688.05 329.06 684.44 328.15 680.80 327.37 C 672.96 325.69 665.08 324.11 657.18 322.72 C 649.00 321.28 640.78 320.10 632.61 318.55 C 625.13 317.13 617.52 316.26 610.18 314.16 C 604.73 312.83 599.51 310.60 594.26 308.64 C 590.88 307.39 586.48 307.00 583.64 304.64 C 583.52 304.79 583.32 304.84 583.14 304.78 C 569.96 300.78 556.22 299.17 542.91 295.71 C 529.60 292.25 516.00 290.24 502.63 287.00 C 502.51 287.14 502.32 287.21 502.14 287.18 C 497.14 286.41 492.07 285.84 487.07 284.97 C 482.00 284.00 476.84 283.50 471.68 283.48 C 461.55 283.59 451.46 283.94 441.33 283.57 C 436.33 283.39 431.26 283.09 426.23 283.23 C 421.20 283.37 416.23 284.85 411.30 285.81 C 402.61 287.48 393.20 285.44 384.83 288.97 C 386.61 303.97 388.25 318.97 388.78 334.14 C 415.08 335.04 441.30 337.36 467.35 341.08 C 510.47 347.08 553.08 356.25 595.23 367.08 C 614.59 372.08 633.76 377.76 653.14 382.66 C 675.72 388.35 698.77 391.96 722.00 393.44 C 761.67 396.00 801.12 392.00 840.55 388.00 C 846.67 387.38 852.81 386.78 858.95 386.24 C 859.46 376.32 859.99 366.40 860.56 356.48 C 860.83 351.70 861.07 346.90 861.32 342.09 C 856.01 343.48 850.57 344.29 845.09 344.53 Z" fill="#a7485a" fill-rule="nonzero" group-id="2" node-id="141" stroke="none" target-height="112.91" target-width="476.49002" target-x="384.83" target-y="283.09"></path><path d="M 914.85 874.27 C 915.45 876.90 915.85 879.89 917.01 882.35 C 918.17 884.81 919.01 884.51 922.36 884.93 C 924.13 885.14 925.89 885.33 927.66 885.50 C 934.88 886.18 942.14 886.43 949.39 886.27 C 955.99 886.13 962.58 885.64 969.15 885.00 C 972.53 884.67 975.90 884.30 979.27 883.93 C 980.01 883.85 983.40 883.93 983.96 883.53 C 984.52 883.13 984.30 882.82 984.58 882.04 C 985.69 878.96 985.73 875.04 986.10 871.79 C 986.62 867.39 987.03 862.98 987.39 858.57 C 988.24 848.11 988.80 837.63 989.15 827.14 C 989.49 816.95 989.66 806.74 989.35 796.55 C 989.23 792.73 989.06 788.91 988.67 785.11 C 988.54 783.79 988.67 781.61 987.75 780.90 C 986.19 779.66 981.39 779.66 979.48 779.43 C 955.85 776.54 930.63 779.82 907.48 784.79 C 907.98 798.85 908.18 813.13 908.95 827.36 C 909.67 835.00 911.49 859.65 914.85 874.27 Z" fill="#a83c2b" fill-rule="nonzero" group-id="2" node-id="143" stroke="none" target-height="109.893555" target-width="82.17999" target-x="907.48" target-y="776.54"></path><path d="M 494.85 728.14 C 494.85 745.39 463.05 759.38 423.82 759.38 C 384.59 759.38 352.79 745.39 352.79 728.14 C 352.79 710.89 384.59 696.90 423.82 696.90 C 463.05 696.90 494.85 710.89 494.85 728.14 Z" fill="#f8d1c7" fill-rule="nonzero" group-id="2" node-id="145" stroke="none" target-height="62.47998" target-width="142.06" target-x="352.79" target-y="696.9"></path><path d="M 838.92 728.14 C 838.92 745.39 807.12 759.38 767.89 759.38 C 728.66 759.38 696.86 745.39 696.86 728.14 C 696.86 710.89 728.66 696.90 767.89 696.90 C 807.12 696.90 838.92 710.89 838.92 728.14 Z" fill="#f8d1c7" fill-rule="nonzero" group-id="2" node-id="147" stroke="none" target-height="62.47998" target-width="142.06" target-x="696.86" target-y="696.9"></path></g><g node-id="239"><path d="M 524.46 657.32 C 524.46 672.32 512.30 684.48 497.30 684.48 C 482.30 684.48 470.14 672.32 470.14 657.32 C 470.14 642.32 482.30 630.16 497.30 630.16 C 512.30 630.16 524.46 642.32 524.46 657.32 Z" fill="#331403" fill-rule="nonzero" group-id="3" node-id="151" stroke="none" target-height="54.320007" target-width="54.320007" target-x="470.14" target-y="630.16"></path><path d="M 520.00 657.32 C 519.65 669.70 509.90 680.00 497.30 680.00 C 484.79 680.00 474.64 669.85 474.64 657.34 C 474.64 644.83 484.79 634.68 497.30 634.68 C 509.90 634.68 519.65 644.99 519.96 657.34 C 520.11 663.12 529.11 663.15 528.96 657.34 C 528.63 644.20 520.86 632.46 508.45 627.73 C 495.90 622.99 481.72 626.68 473.07 636.94 C 464.42 647.20 463.18 661.80 469.98 673.37 C 476.77 684.94 490.13 690.97 503.30 688.41 C 518.30 685.67 528.58 672.24 528.96 657.34 C 529.11 651.53 520.11 651.53 520.00 657.32 Z" fill="#331403" fill-rule="nonzero" group-id="3" node-id="153" stroke="none" target-height="67.976135" target-width="65.92636" target-x="463.18362" target-y="622.99023"></path><path d="M 738.35 657.32 C 738.35 672.32 726.19 684.48 711.19 684.48 C 696.19 684.48 684.03 672.32 684.03 657.32 C 684.03 642.32 696.19 630.16 711.19 630.16 C 726.19 630.16 738.35 642.32 738.35 657.32 Z" fill="#331403" fill-rule="nonzero" group-id="3" node-id="155" stroke="none" target-height="54.320007" target-width="54.319946" target-x="684.03" target-y="630.16"></path><path d="M 733.85 657.32 C 733.54 669.70 723.79 680.00 711.19 680.00 C 698.68 680.00 688.53 669.85 688.53 657.34 C 688.53 644.83 698.68 634.68 711.19 634.68 C 723.79 634.68 733.54 644.99 733.85 657.34 C 734.00 663.12 743.00 663.15 742.85 657.34 C 742.52 644.20 734.75 632.46 722.34 627.73 C 709.79 622.99 695.61 626.68 686.96 636.94 C 678.31 647.20 677.07 661.80 683.87 673.37 C 690.66 684.94 704.02 690.97 717.19 688.41 C 732.19 685.67 742.48 672.24 742.85 657.34 C 743.00 651.53 734.00 651.53 733.85 657.32 Z" fill="#331403" fill-rule="nonzero" group-id="3" node-id="157" stroke="none" target-height="67.976135" target-width="65.92639" target-x="677.0736" target-y="622.99023"></path></g><g node-id="240"><path d="M 184.13 469.67 C 213.96 408.37 291.05 386.46 354.28 389.11 C 375.82 390.06 397.14 393.86 417.68 400.42 C 423.21 402.18 425.58 393.49 420.07 391.75 C 351.85 370.08 267.32 376.28 210.28 422.84 C 196.05 434.31 184.48 448.74 176.36 465.12 C 173.84 470.31 181.59 474.88 184.13 469.67 Z" fill="#293a60" fill-rule="nonzero" group-id="4" node-id="161" stroke="none" target-height="104.80002" target-width="251.73999" target-x="173.84" target-y="370.08"></path><path d="M 532.68 410.13 C 592.17 434.85 655.62 448.67 720.00 450.92 C 738.40 451.54 756.83 451.20 775.20 449.92 C 780.95 449.52 780.99 440.52 775.20 440.92 C 711.44 445.33 647.41 438.16 586.20 419.76 C 568.86 414.52 551.81 408.40 535.09 401.43 C 529.75 399.21 527.42 407.91 532.70 410.11 Z" fill="#293a60" fill-rule="nonzero" group-id="4" node-id="163" stroke="none" target-height="52.326904" target-width="253.57" target-x="527.42" target-y="399.21"></path><path d="M 935.68 443.67 C 957.05 440.30 979.68 447.67 995.16 462.74 C 1003.24 470.59 1010.16 481.04 1011.50 492.45 C 1012.80 503.51 1008.03 514.80 997.68 519.65 C 992.44 522.11 997.01 529.87 1002.23 527.42 C 1013.72 522.03 1020.33 509.73 1020.70 497.31 C 1021.12 483.20 1013.83 469.75 1004.60 459.56 C 986.77 439.90 959.31 430.88 933.29 434.99 C 927.58 435.89 930.00 444.57 935.68 443.67 Z" fill="#293a60" fill-rule="nonzero" group-id="4" node-id="165" stroke="none" target-height="98.98999" target-width="93.53998" target-x="927.58" target-y="430.88"></path><path d="M 370.91 456.09 C 388.69 452.62 406.68 450.31 424.76 449.15 C 430.52 448.78 430.56 439.78 424.76 440.15 C 405.88 441.36 387.09 443.79 368.52 447.41 C 362.84 448.52 365.24 457.20 370.91 456.09 Z" fill="#293a60" fill-rule="nonzero" group-id="4" node-id="167" stroke="none" target-height="17.420013" target-width="67.72" target-x="362.84" target-y="439.78"></path><path d="M 250.31 545.50 C 261.31 525.09 278.86 508.97 300.14 499.74 C 305.44 497.43 300.86 489.67 295.60 491.97 C 272.95 501.93 254.27 519.18 242.54 540.97 C 239.79 546.07 247.54 550.62 250.31 545.51 Z" fill="#293a60" fill-rule="nonzero" group-id="4" node-id="169" stroke="none" target-height="60.94998" target-width="65.65001" target-x="239.79" target-y="489.67"></path><path d="M 549.00 480.12 L 591.36 481.54 C 597.15 481.74 597.14 472.74 591.36 472.54 L 549.00 471.12 C 543.21 470.92 543.22 479.92 549.00 480.12 Z" fill="#293a60" fill-rule="nonzero" group-id="4" node-id="171" stroke="none" target-height="10.819977" target-width="53.940002" target-x="543.21" target-y="470.92"></path><path d="M 824.29 492.91 C 836.25 492.75 848.19 494.12 859.80 497.00 C 865.43 498.39 867.80 489.71 862.20 488.32 C 849.80 485.24 837.06 483.77 824.29 483.92 C 818.51 484.00 818.49 493.00 824.29 492.92 Z" fill="#293a60" fill-rule="nonzero" group-id="4" node-id="173" stroke="none" target-height="14.624664" target-width="49.309998" target-x="818.49" target-y="483.76535"></path><path d="M 940.28 556.25 C 954.70 559.69 968.07 566.55 979.28 576.25 C 983.64 580.02 990.03 573.68 985.65 569.88 C 973.31 559.12 958.56 551.48 942.65 547.62 C 937.03 546.25 934.65 554.93 940.26 556.29 Z" fill="#293a60" fill-rule="nonzero" group-id="4" node-id="175" stroke="none" target-height="33.77002" target-width="55.380005" target-x="934.65" target-y="546.25"></path><path d="M 431.81 174.27 C 509.15 173.77 586.32 181.84 661.88 198.36 C 683.21 203.03 704.37 208.36 725.36 214.36 C 730.94 215.95 733.36 207.27 727.75 205.68 C 652.90 184.35 575.92 171.35 498.21 166.91 C 476.07 165.64 453.94 165.09 431.81 165.27 C 426.02 165.27 426.00 174.27 431.81 174.27 Z" fill="#293a60" fill-rule="nonzero" group-id="4" node-id="177" stroke="none" target-height="50.86" target-width="307.36" target-x="426" target-y="165.09"></path><path d="M 767.81 230.48 L 870.90 241.42 C 876.66 242.03 876.61 233.03 870.90 232.42 L 767.81 221.48 C 762.05 220.87 762.10 229.87 767.81 230.48 Z" fill="#293a60" fill-rule="nonzero" group-id="4" node-id="179" stroke="none" target-height="21.160004" target-width="114.609985" target-x="762.05" target-y="220.87"></path><path d="M 399.65 253.73 C 400.06 252.29 416.14 253.10 418.03 253.07 C 424.94 252.97 431.86 252.90 438.77 252.86 C 452.93 252.78 467.09 252.82 481.24 252.99 C 487.03 253.05 487.04 244.05 481.24 243.99 C 463.79 243.79 446.34 243.77 428.89 243.94 C 420.33 244.02 411.77 244.06 403.21 244.33 C 397.99 244.49 392.57 245.69 390.97 251.33 C 389.37 256.97 398.07 259.33 399.65 253.72 Z" fill="#293a60" fill-rule="nonzero" group-id="4" node-id="181" stroke="none" target-height="15.556656" target-width="97.67001" target-x="389.37" target-y="243.77333"></path><path d="M 540.83 260.84 C 600.63 274.32 660.81 285.93 721.36 295.67 C 727.03 296.58 729.47 287.91 723.75 286.99 C 663.25 277.25 603.07 265.64 543.22 252.17 C 537.58 250.89 535.17 259.57 540.83 260.84 Z" fill="#293a60" fill-rule="nonzero" group-id="4" node-id="183" stroke="none" target-height="45.689987" target-width="194.29999" target-x="535.17" target-y="250.89"></path><path d="M 793.24 300.91 L 861.00 300.91 C 866.79 300.91 866.80 291.91 861.00 291.91 L 793.24 291.91 C 787.44 291.91 787.43 300.91 793.24 300.91 Z" fill="#293a60" fill-rule="nonzero" group-id="4" node-id="185" stroke="none" target-height="9" target-width="79.369995" target-x="787.43" target-y="291.91"></path><path d="M 751.12 280.83 L 759.59 282.26 C 761.99 282.66 764.44 281.62 765.13 279.11 C 765.72 276.95 764.39 273.99 761.98 273.58 L 753.52 272.15 C 751.12 271.74 748.67 272.78 747.98 275.29 C 747.39 277.45 748.71 280.42 751.12 280.83 Z" fill="#293a60" fill-rule="nonzero" group-id="4" node-id="187" stroke="none" target-height="10.920013" target-width="18.329956" target-x="747.39" target-y="271.74"></path><path d="M 517.63 224.17 C 528.85 221.10 540.64 220.79 552.00 223.25 C 557.65 224.48 560.06 215.80 554.40 214.58 C 541.46 211.73 528.03 212.04 515.24 215.50 C 509.65 217.00 512.02 225.69 517.63 224.17 Z" fill="#293a60" fill-rule="nonzero" group-id="4" node-id="189" stroke="none" target-height="13.963013" target-width="50.410004" target-x="509.65" target-y="211.72699"></path></g><g node-id="241"><path d="M 200.70 1203.08 C 238.33 1135.92 285.36 1073.45 344.11 1023.32 C 358.81 1010.75 374.24 999.06 390.32 988.32 C 395.11 985.12 390.61 977.32 385.77 980.55 C 324.11 1021.70 272.77 1076.47 230.84 1137.36 C 217.24 1157.12 204.66 1177.57 192.93 1198.50 C 190.10 1203.56 197.87 1208.10 200.70 1203.04 Z" fill="#331403" fill-rule="nonzero" group-id="5" node-id="193" stroke="none" target-height="230.77997" target-width="205.00998" target-x="190.1" target-y="977.32"></path><path d="M 825.00 986.35 C 887.93 1026.83 941.00 1081.30 984.59 1141.83 C 998.59 1161.22 1011.59 1181.27 1023.79 1201.83 C 1026.79 1206.83 1034.53 1202.28 1031.56 1197.29 C 990.62 1128.48 940.07 1064.50 877.82 1013.73 C 862.40 1001.12 846.28 989.40 829.54 978.61 C 824.65 975.47 820.14 983.25 825.00 986.38 Z" fill="#331403" fill-rule="nonzero" group-id="5" node-id="195" stroke="none" target-height="231.35999" target-width="214.39001" target-x="820.14" target-y="975.47"></path><path d="M 590.00 1022.76 C 576.31 1000.31 561.54 978.07 543.60 958.76 C 539.65 954.50 533.29 960.88 537.23 965.12 C 554.67 983.88 568.93 1005.49 582.23 1027.30 C 585.23 1032.24 593.03 1027.73 590.00 1022.76 Z" fill="#331403" fill-rule="nonzero" group-id="5" node-id="197" stroke="none" target-height="77.73999" target-width="59.74005" target-x="533.29" target-y="954.5"></path><path d="M 473.00 935.65 L 421.42 931.40 C 415.69 930.93 409.12 929.40 403.37 929.92 C 396.29 930.51 389.69 939.82 385.47 944.79 C 374.98 957.13 362.24 966.73 348.67 975.48 C 345.76 977.35 345.67 983.08 349.74 983.70 C 365.98 986.16 382.28 988.08 398.53 990.45 C 406.83 991.65 415.11 992.98 423.34 994.57 C 431.21 996.08 440.22 997.11 447.67 1000.04 C 451.60 1001.60 455.39 1005.04 458.90 1007.47 L 479.20 1021.35 L 492.63 1030.53 C 497.42 1033.81 501.93 1026.01 497.17 1022.76 L 465.66 1001.22 C 461.47 998.35 457.29 994.81 452.80 992.42 C 447.29 989.49 439.45 988.73 433.37 987.42 C 425.15 985.67 416.86 984.21 408.55 982.91 C 389.79 979.97 370.91 977.85 352.13 975.01 L 353.21 983.24 C 365.73 975.17 378.07 966.37 388.16 955.33 C 393.00 950.04 397.16 943.74 403.22 939.76 C 404.77 938.76 405.42 939.05 403.39 938.91 C 403.54 938.88 403.68 938.88 403.83 938.91 C 404.79 939.13 405.77 939.21 406.75 939.15 L 418.41 940.15 L 451.32 942.85 L 473.00 944.65 C 478.77 945.12 478.74 936.12 473.00 935.65 Z" fill="#331403" fill-rule="nonzero" group-id="5" node-id="199" stroke="none" target-height="104.410034" target-width="156.25998" target-x="345.67" target-y="929.4"></path><path d="M 616.31 1030.05 C 629.97 1007.39 644.66 984.91 662.67 965.43 C 666.60 961.18 660.25 954.80 656.31 959.07 C 637.78 979.07 622.59 1002.20 608.54 1025.51 C 605.54 1030.51 613.32 1035.01 616.31 1030.05 Z" fill="#331403" fill-rule="nonzero" group-id="5" node-id="201" stroke="none" target-height="80.21002" target-width="61.059998" target-x="605.54" target-y="954.8"></path><path d="M 731.38 944.30 L 780.74 940.24 L 792.52 939.24 C 793.52 939.16 794.61 939.16 795.62 938.99 C 795.91 938.99 796.22 938.99 796.52 938.91 C 797.00 938.91 794.79 937.74 795.81 939.00 C 796.65 940.05 798.54 940.79 799.63 941.69 C 800.91 942.78 802.12 943.94 803.25 945.18 C 805.68 947.79 807.88 950.60 810.25 953.29 C 820.73 965.29 833.71 974.65 847.01 983.22 L 848.09 974.99 C 831.22 977.54 814.27 979.52 797.39 981.99 C 788.77 983.26 780.17 984.68 771.62 986.39 C 767.46 987.22 763.32 988.11 759.20 989.09 C 755.52 989.97 750.94 990.50 747.59 992.25 C 743.67 994.25 740.03 997.42 736.39 999.90 L 715.39 1014.28 L 701.59 1023.71 C 696.83 1026.96 701.33 1034.71 706.13 1031.48 L 737.56 1010.00 C 742.07 1006.91 746.72 1002.76 751.65 1000.36 C 756.58 997.96 763.01 997.42 768.26 996.28 C 776.49 994.51 784.77 993.03 793.08 991.72 C 812.16 988.72 831.36 986.56 850.46 983.72 C 854.56 983.10 854.46 977.38 851.53 975.50 C 839.27 967.60 827.38 959.02 817.60 948.11 C 812.60 942.57 808.31 936.63 802.07 932.39 C 796.71 928.73 791.07 930.39 784.88 930.92 L 753.38 933.51 L 731.38 935.32 C 725.65 935.80 725.60 944.80 731.38 944.32 Z" fill="#331403" fill-rule="nonzero" group-id="5" node-id="203" stroke="none" target-height="105.97998" target-width="157.72998" target-x="696.83" target-y="928.73"></path><path d="M 907.39 590.00 C 922.50 666.47 908.56 747.00 867.94 813.54 C 831.73 872.87 775.57 919.44 710.34 943.54 C 605.92 982.30 488.76 962.41 402.98 891.36 C 317.21 820.31 275.85 708.90 294.49 599.09 C 296.50 587.28 299.17 575.60 302.49 564.09 C 304.09 558.51 295.41 556.09 293.81 561.70 C 271.00 641.15 279.51 727.79 318.08 800.92 C 388.61 934.67 542.96 1001.00 688.53 960.13 C 757.83 940.70 819.20 897.55 861.53 839.40 C 906.41 777.68 927.75 700.40 921.31 624.40 C 920.25 612.06 918.51 599.78 916.10 587.63 C 914.98 581.95 906.30 584.35 907.42 590.02 Z" fill="#331403" fill-rule="nonzero" group-id="5" node-id="205" stroke="none" target-height="444.91327" target-width="656.75" target-x="271" target-y="556.09"></path><path d="M 890.00 1028.00 C 870.91 1039.62 856.61 1058.60 845.29 1077.49 C 831.28 1100.79 821.21 1126.23 815.48 1152.81 C 812.26 1167.46 810.88 1182.46 811.39 1197.46 C 811.64 1203.23 820.64 1203.26 820.39 1197.46 C 819.31 1171.90 824.83 1146.46 833.65 1122.58 C 842.15 1099.58 854.05 1076.99 869.85 1058.10 C 876.98 1049.57 885.00 1041.58 894.54 1035.78 C 899.48 1032.78 894.96 1024.98 890.00 1028.00 Z" fill="#331403" fill-rule="nonzero" group-id="5" node-id="207" stroke="none" target-height="178.28003" target-width="88.59607" target-x="810.8839" target-y="1024.98"></path><path d="M 327.46 1035.78 C 345.46 1046.71 358.73 1064.87 369.31 1082.66 C 382.59 1104.90 392.17 1129.15 397.68 1154.46 C 400.81 1168.57 402.13 1183.02 401.61 1197.46 C 401.36 1203.25 410.36 1203.24 410.61 1197.46 C 411.75 1170.40 405.78 1143.20 396.21 1118.01 C 387.11 1094.01 374.69 1070.91 358.10 1051.24 C 350.58 1042.32 342.01 1034.09 332.00 1028.00 C 327.00 1025.00 322.51 1032.77 327.46 1035.78 Z" fill="#331403" fill-rule="nonzero" group-id="5" node-id="209" stroke="none" target-height="178.25" target-width="89.23999" target-x="322.51" target-y="1025"></path><path d="M 393.31 335.23 C 392.31 305.13 386.94 275.42 384.59 245.43 C 382.38 217.37 382.32 187.19 395.39 161.43 C 407.75 137.13 429.39 120.61 456.08 115.51 C 484.23 110.13 514.01 113.93 541.98 118.61 C 570.58 123.40 598.78 130.27 627.28 135.61 C 651.40 140.12 675.70 141.61 700.15 143.29 C 727.04 145.10 754.07 147.04 780.53 152.36 C 803.39 156.95 827.71 163.95 845.82 179.36 C 854.16 186.29 860.67 195.16 864.77 205.20 C 870.96 220.92 870.89 238.27 869.30 254.85 C 867.55 273.15 863.68 291.17 861.47 309.42 C 859.58 325.07 859.09 340.96 858.20 356.70 C 857.62 366.88 857.07 377.06 856.55 387.25 C 856.25 393.04 865.25 393.02 865.55 387.25 C 866.54 367.83 867.64 348.42 868.85 329.01 C 869.95 311.59 872.70 294.55 875.37 277.32 C 880.08 246.85 883.79 212.16 864.18 185.86 C 849.73 166.47 827.18 155.66 804.46 148.96 C 778.10 141.17 750.46 138.18 723.14 135.96 C 697.39 133.87 671.29 133.46 645.72 129.66 C 617.06 125.40 588.90 118.24 560.45 112.84 C 531.01 107.25 500.55 102.33 470.45 104.65 C 457.45 105.65 444.45 108.09 432.45 113.29 C 419.72 118.79 408.62 127.88 399.79 138.51 C 359.43 187.03 377.62 255.96 382.79 312.72 C 383.47 320.20 383.98 327.72 384.22 335.20 C 384.41 340.98 393.41 341.01 393.22 335.20 Z" fill="#331403" fill-rule="nonzero" group-id="5" node-id="211" stroke="none" target-height="290.71002" target-width="524.36" target-x="359.43" target-y="102.33"></path><path d="M 922.83 591.44 C 904.15 576.90 882.74 566.35 860.95 557.34 C 833.13 545.84 804.21 537.07 775.01 529.85 C 705.59 512.86 634.47 503.80 563.01 502.85 C 494.58 501.85 423.94 507.47 358.78 529.62 C 344.40 534.44 330.39 540.29 316.84 547.10 C 310.60 550.26 304.50 553.68 298.54 557.37 C 295.64 559.16 292.79 561.02 289.98 562.96 C 288.55 563.96 287.16 565.17 285.66 565.96 C 283.46 567.18 282.24 567.08 279.51 567.05 C 244.61 566.72 208.04 560.23 178.35 540.89 C 157.35 527.25 140.44 506.03 137.64 480.56 C 134.75 454.23 146.83 429.28 164.36 410.31 C 190.36 382.15 226.96 364.57 263.36 354.00 C 305.56 341.73 349.93 338.56 393.70 340.00 C 477.70 342.77 560.19 362.24 640.79 384.76 C 682.49 396.29 725.72 401.26 768.95 399.49 C 806.02 398.14 842.73 392.49 879.73 390.32 C 914.99 388.22 950.29 390.32 983.68 402.65 C 1002.42 409.76 1020.13 419.32 1036.35 431.08 C 1047.53 439.08 1059.69 447.27 1065.20 460.37 C 1073.98 481.25 1065.81 505.13 1053.89 522.92 C 1036.34 549.12 1008.16 567.28 978.89 577.78 C 959.79 584.50 939.88 588.63 919.69 590.07 C 913.95 590.51 913.91 599.52 919.69 599.07 C 958.17 596.07 996.91 585.07 1028.24 561.83 C 1050.30 545.48 1069.88 522.56 1075.99 495.16 C 1080.93 473.00 1075.27 450.54 1057.37 435.90 C 1025.73 410.02 989.10 390.82 948.54 384.02 C 913.39 378.13 877.82 380.94 842.54 384.48 C 802.84 388.48 763.13 392.55 723.18 389.98 C 699.78 388.49 676.57 384.80 653.85 378.98 C 634.71 374.07 615.75 368.47 596.60 363.58 C 554.79 352.89 512.51 343.77 469.74 337.82 C 383.58 325.82 288.74 324.42 209.60 365.77 C 180.33 381.07 151.89 403.24 137.42 433.71 C 126.26 457.18 125.07 483.82 136.25 507.51 C 148.43 533.33 172.85 550.92 198.68 561.45 C 215.68 568.45 233.83 572.34 252.08 574.45 C 262.69 575.78 273.39 576.33 284.08 576.10 C 288.15 575.96 290.48 573.52 293.73 571.27 C 296.79 569.14 299.91 567.10 303.08 565.13 C 358.87 530.52 427.34 518.43 491.86 513.77 C 565.78 508.43 640.71 513.36 713.66 526.14 C 747.18 531.88 780.30 539.74 812.82 549.67 C 839.28 557.87 865.51 567.67 889.91 580.85 C 899.20 585.76 908.08 591.43 916.45 597.79 C 921.00 601.32 927.40 595.00 922.83 591.44 Z" fill="#331403" fill-rule="nonzero" group-id="5" node-id="213" stroke="none" target-height="276.9" target-width="955.86005" target-x="125.07" target-y="324.42"></path><path d="M 866.50 185.46 C 889.36 132.95 953.57 140.87 1000.62 134.39 C 1013.78 132.58 1026.83 129.63 1038.71 123.50 L 1031.94 119.62 C 1029.52 147.79 1017.94 174.98 992.00 188.76 C 968.21 201.39 939.09 200.76 913.38 195.49 C 896.64 191.98 880.37 186.55 864.88 179.30 C 859.66 176.88 855.08 184.64 860.34 187.07 C 909.97 210.07 987.09 224.88 1023.96 172.16 C 1034.73 156.76 1039.35 138.10 1040.96 119.62 C 1041.27 116.00 1036.96 114.30 1034.19 115.73 C 1012.00 127.18 985.19 127.14 960.82 129.03 C 935.60 130.98 908.31 133.42 886.54 147.57 C 874.19 155.70 864.52 167.30 858.75 180.92 C 856.44 186.17 864.19 190.76 866.50 185.46 Z" fill="#331403" fill-rule="nonzero" group-id="5" node-id="215" stroke="none" target-height="110.58" target-width="186.19" target-x="855.08" target-y="114.3"></path><path d="M 445.86 813.81 C 534.41 805.04 623.40 801.52 712.36 803.26 C 737.03 803.70 761.67 804.56 786.29 805.84 C 792.08 806.14 792.06 797.14 786.29 796.84 C 697.43 792.28 608.37 792.91 519.58 798.72 C 494.97 800.32 470.39 802.35 445.86 804.81 C 440.15 805.38 440.09 814.39 445.86 813.81 Z" fill="#331403" fill-rule="nonzero" group-id="5" node-id="217" stroke="none" target-height="22.108887" target-width="351.99002" target-x="440.09" target-y="792.2811"></path><path d="M 441.52 810.51 C 446.01 838.21 464.02 862.31 484.78 880.34 C 508.32 900.80 537.30 915.75 567.89 922.16 C 596.89 928.24 626.75 925.01 655.03 916.71 C 684.25 908.24 711.64 894.43 735.84 876.00 C 760.29 857.17 781.73 832.64 790.63 802.56 C 792.28 796.99 783.63 794.62 781.95 800.17 C 774.55 825.17 757.59 846.07 737.95 862.77 C 716.23 881.27 690.42 895.28 663.49 904.57 C 637.35 913.57 608.94 918.95 581.29 915.39 C 551.85 911.60 523.44 898.93 499.85 881.10 C 476.26 863.27 455.03 838.10 450.16 808.10 C 449.23 802.40 440.56 804.82 441.48 810.50 Z" fill="#331403" fill-rule="nonzero" group-id="5" node-id="219" stroke="none" target-height="133.62" target-width="351.72003" target-x="440.56" target-y="794.62"></path><path d="M 723.44 837.00 C 785.24 833.57 847.11 832.23 909.04 833.00 C 914.83 833.07 914.83 824.07 909.04 824.00 C 847.14 823.25 785.27 824.59 723.44 828.00 C 717.68 828.32 717.64 837.32 723.44 837.00 Z" fill="#331403" fill-rule="nonzero" group-id="5" node-id="221" stroke="none" target-height="14.06665" target-width="197.19" target-x="717.64" target-y="823.25336"></path><path d="M 902.90 783.92 C 903.56 801.99 903.99 820.08 905.40 838.12 C 906.66 854.29 908.24 871.04 913.58 886.46 C 914.05 887.82 915.15 889.38 916.72 889.60 C 940.16 892.98 962.83 891.41 986.24 888.87 C 988.25 888.81 989.99 887.48 990.58 885.56 C 994.65 868.71 994.85 850.38 995.58 833.15 C 996.33 815.40 997.67 796.53 994.49 778.93 C 994.08 777.39 992.88 776.20 991.34 775.79 C 977.41 772.20 962.48 772.60 948.25 773.64 C 934.13 774.64 920.09 776.62 906.25 779.58 C 900.60 780.81 902.99 789.48 908.65 788.26 C 921.72 785.46 934.96 783.58 948.29 782.64 C 961.71 781.64 975.85 781.08 988.99 784.47 L 985.85 781.32 C 988.85 798.04 987.33 816.32 986.62 833.15 C 985.93 849.59 985.83 867.09 981.95 883.15 L 986.29 879.85 C 963.79 882.30 941.71 884.15 919.16 880.85 L 922.30 884.00 C 917.04 868.80 915.51 852.40 914.30 836.46 C 913.00 818.95 912.57 801.39 911.93 783.85 C 911.72 778.08 902.72 778.05 902.93 783.85 Z" fill="#331403" fill-rule="nonzero" group-id="5" node-id="223" stroke="none" target-height="120.77997" target-width="97.07001" target-x="900.6" target-y="772.2"></path><path d="M 536.90 808.00 C 534.54 844.40 539.05 880.93 550.17 915.67 C 551.91 921.17 560.60 918.82 558.85 913.28 C 547.97 879.31 543.57 843.59 545.90 808.00 C 546.29 802.22 537.29 802.24 536.90 808.00 Z" fill="#331403" fill-rule="nonzero" group-id="5" node-id="225" stroke="none" target-height="118.95001" target-width="26.054993" target-x="534.545" target-y="802.22"></path><path d="M 648.82 804.18 C 653.82 839.02 651.53 874.41 648.29 909.30 C 647.76 915.06 656.76 915.03 657.29 909.30 C 660.61 873.50 662.68 837.51 657.50 801.79 C 656.67 796.08 647.99 798.51 648.82 804.18 Z" fill="#331403" fill-rule="nonzero" group-id="5" node-id="227" stroke="none" target-height="118.97998" target-width="14.919983" target-x="647.76" target-y="796.08"></path><path d="M 584.62 1083.47 C 564.81 1115.19 549.89 1152.71 519.55 1176.25 C 508.44 1184.86 492.13 1194.87 477.67 1188.68 C 465.95 1183.68 460.58 1170.14 459.86 1158.19 C 458.72 1139.19 467.23 1121.34 480.56 1108.19 C 481.99 1106.73 482.28 1104.50 481.27 1102.73 C 475.10 1094.10 470.14 1083.98 469.17 1073.29 C 467.74 1057.51 476.28 1044.29 488.90 1035.45 C 514.77 1017.32 549.28 1020.45 575.90 1035.15 C 580.97 1037.95 585.52 1030.15 580.44 1027.38 C 556.61 1014.26 527.17 1009.26 501.17 1018.97 C 476.86 1028.05 456.55 1049.53 460.59 1076.97 C 462.20 1087.91 467.08 1098.33 473.48 1107.29 L 474.18 1101.83 C 460.60 1115.21 451.58 1132.97 450.79 1152.19 C 450.19 1166.90 454.79 1183.06 466.74 1192.48 C 479.90 1202.86 496.45 1200.15 510.35 1192.83 C 529.03 1182.99 543.49 1167.13 555.35 1149.98 C 569.08 1130.18 579.60 1108.42 592.35 1087.98 C 595.43 1083.05 587.65 1078.53 584.58 1083.43 Z" fill="#331403" fill-rule="nonzero" group-id="5" node-id="229" stroke="none" target-height="193.59998" target-width="145.23999" target-x="450.19" target-y="1009.26"></path><path d="M 620.83 1035.17 C 647.47 1020.51 681.98 1017.34 707.83 1035.47 C 720.25 1044.17 728.83 1057.14 727.61 1072.68 C 726.78 1083.61 721.75 1093.95 715.47 1102.75 C 714.44 1104.52 714.73 1106.76 716.17 1108.21 C 728.17 1120.02 736.40 1135.71 736.95 1152.76 C 737.34 1164.96 733.75 1179.16 723.10 1186.43 C 710.75 1194.87 695.99 1188.59 684.67 1181.43 C 668.39 1171.19 655.98 1156.02 645.54 1140.11 C 633.77 1122.17 624.17 1102.94 612.90 1084.70 C 609.90 1079.78 602.07 1084.29 605.13 1089.24 C 627.06 1124.74 644.13 1167.32 681.34 1189.95 C 695.00 1198.26 712.22 1203.85 726.92 1194.64 C 739.29 1186.88 745.03 1172.20 745.87 1158.15 C 747.15 1136.92 737.44 1116.48 722.53 1101.80 L 723.24 1107.26 C 735.74 1089.74 742.09 1066.04 730.48 1046.40 C 716.70 1023.09 687.35 1012.60 661.39 1014.03 C 645.54 1015.03 630.12 1019.59 616.27 1027.36 C 611.20 1030.15 615.73 1037.93 620.81 1035.13 Z" fill="#331403" fill-rule="nonzero" group-id="5" node-id="231" stroke="none" target-height="191.25" target-width="145.08002" target-x="602.07" target-y="1012.6"></path><path d="M 580.87 1056.23 C 579.62 1046.67 580.08 1034.39 589.03 1028.45 C 595.26 1024.31 603.36 1025.53 608.92 1030.24 C 617.73 1037.70 618.85 1050.74 617.44 1061.43 C 616.31 1069.91 612.28 1085.82 600.65 1084.14 C 587.93 1082.30 582.32 1065.70 580.71 1055.04 C 579.84 1049.33 571.17 1051.75 572.03 1057.43 C 574.14 1071.33 581.59 1087.71 596.12 1092.27 C 610.24 1096.71 620.46 1085.01 624.23 1072.66 C 628.71 1057.92 628.56 1039.31 618.23 1026.95 C 611.11 1018.41 599.10 1014.41 588.55 1018.63 C 573.61 1024.63 569.95 1041.80 571.84 1056.23 C 572.61 1061.89 581.61 1062.00 580.87 1056.23 Z" fill="#331403" fill-rule="nonzero" group-id="5" node-id="233" stroke="none" target-height="82.29999" target-width="58.76001" target-x="569.95" target-y="1014.41"></path><path d="M 386.00 292.18 C 417.66 288.09 449.62 284.05 481.56 287.18 C 512.99 290.24 543.56 299.18 574.05 307.11 C 634.46 322.77 695.27 338.05 757.46 344.61 C 792.54 348.30 827.91 349.01 863.02 345.38 C 868.73 344.79 868.79 335.78 863.02 336.38 C 799.88 342.90 736.55 335.12 674.71 322.14 C 644.26 315.75 614.08 308.14 583.96 300.38 C 553.64 292.54 523.34 283.66 492.25 279.44 C 456.69 274.61 421.36 278.62 386.00 283.19 C 380.33 283.92 380.26 292.93 386.00 292.19 Z" fill="#331403" fill-rule="nonzero" group-id="5" node-id="235" stroke="none" target-height="74.400024" target-width="488.52997" target-x="380.26" target-y="274.61"></path></g></svg>